/* XPM */
static char *result[] = {
/* columns rows colors chars-per-pixel */
"50 50 180 2 ",
"   c #672A0D",
".  c #7C240A",
"X  c #6B340B",
"o  c #763507",
"O  c #3C621A",
"+  c #456D19",
"@  c #486D1D",
"#  c #4A7316",
"$  c #4D7817",
"%  c #4D731D",
"&  c #537A17",
"*  c #736D0C",
"=  c #517720",
"-  c #8A0203",
";  c #8E0E02",
":  c #840804",
">  c #910001",
",  c #9B0101",
"<  c #9D0A02",
"1  c #9C0B0C",
"2  c #851504",
"3  c #941A06",
"4  c #A50101",
"5  c #AC0001",
"6  c #B40202",
"7  c #BC0000",
"8  c #B10A0B",
"9  c #BC0808",
"0  c #BB0F10",
"q  c #AC1F1F",
"w  c #AA1517",
"e  c #B51012",
"r  c #B41D1F",
"t  c #862808",
"y  c #8E3F0E",
"u  c #923608",
"i  c #A7360C",
"p  c #B22122",
"a  c #BD3E2C",
"s  c #C20000",
"d  c #CC0101",
"f  c #C30E0F",
"g  c #CB0A0B",
"h  c #D30000",
"j  c #DA0202",
"k  c #DB0F10",
"l  c #C41B1C",
"z  c #E30101",
"x  c #ED0000",
"c  c #E40E0E",
"v  c #F50000",
"b  c #FC0000",
"n  c #E11011",
"m  c #EC1A1A",
"M  c #CA2020",
"N  c #C42E2F",
"B  c #D82C2D",
"V  c #DE3132",
"C  c #EF2626",
"Z  c #FC2324",
"A  c #FD2E2E",
"S  c #F3292A",
"D  c #F62F30",
"F  c #FA2F30",
"G  c #E43939",
"H  c #8F400E",
"J  c #9F4A01",
"K  c #97400E",
"L  c #845103",
"P  c #935001",
"I  c #924412",
"U  c #975615",
"Y  c #AC410E",
"T  c #A1420F",
"R  c #AF4210",
"E  c #B04310",
"W  c #8B6902",
"Q  c #836D14",
"!  c #9A7519",
"~  c #977819",
"^  c #9B7B1A",
"/  c #A66A22",
"(  c #E53F40",
")  c #EE4647",
"_  c #F04B4C",
"`  c #F75253",
"'  c #568114",
"]  c #598513",
"[  c #5E8B12",
"{  c #618D0F",
"}  c #67940E",
"|  c #69970D",
" . c #6D9B0C",
".. c #709F0B",
"X. c #628D14",
"o. c #668E1B",
"O. c #649012",
"+. c #679812",
"@. c #6B9B15",
"#. c #68911A",
"$. c #639118",
"%. c #72911F",
"&. c #748609",
"*. c #73A30C",
"=. c #7CAC09",
"-. c #7AAB09",
";. c #7FB007",
":. c #7FB20B",
">. c #72A312",
",. c #76A810",
"<. c #7CAC15",
"1. c #76A518",
"2. c #7CAA1B",
"3. c #6D9522",
"4. c #769923",
"5. c #7AA224",
"6. c #938101",
"7. c #839804",
"8. c #9C8C1D",
"9. c #99A001",
"0. c #83B406",
"q. c #8ABD04",
"w. c #86BA0B",
"e. c #89BD0A",
"r. c #83B408",
"t. c #94B904",
"y. c #80AC1E",
"u. c #909A20",
"i. c #9E9F21",
"p. c #A29F21",
"a. c #86AC23",
"s. c #89AF21",
"d. c #84A828",
"f. c #8AAF2B",
"g. c #8EB822",
"h. c #8FB72C",
"j. c #8DB023",
"k. c #96BF27",
"l. c #94BA2D",
"z. c #A5BD26",
"x. c #A4B725",
"c. c #A8A929",
"v. c #8FC304",
"b. c #92C603",
"n. c #96CA02",
"m. c #99CE01",
"M. c #93C50B",
"N. c #99C90F",
"B. c #9DD302",
"V. c #9FCB1D",
"C. c #97C711",
"Z. c #A0D601",
"A. c #A4DA02",
"S. c #A8DF01",
"D. c #ADE501",
"F. c #B5ED01",
"G. c #B7F000",
"H. c #BCF501",
"J. c #BEF801",
"K. c #9BC227",
"L. c #9DC429",
"P. c #9FCB2B",
"I. c #A1CC24",
"U. c #A1C629",
"Y. c #A5CD2A",
"T. c #A9C928",
"R. c #ACC927",
"E. c #B1CE2E",
"W. c #A7D02A",
"Q. c #ABD42A",
"!. c #AED82D",
"~. c #A4D023",
"^. c #B0DA2E",
"/. c #ADD730",
"(. c #AFD831",
"). c #B3D331",
"_. c #B3DC32",
"`. c #B7E035",
"'. c #B8E236",
"]. c #C5FF00",
/* pixels */
"Q.Q.Q.W.W.Q.Q.Q.W.W.Q.!.Q.Q.Y.Y.Q.!.Q.Q.`.`.!.Q.Q.Q.W.Y.Q.Q.Q.Q.Q.Y.Q.Q.Q.~.Y.U.Y.Q.Q.^.'.(.!.Q.Q.Q.",
"^.^.Q.Q.Q.Q.Y.Y.W.W.Q.!.!.Q.W.~.Q.^.^.!.^._.!.Q.Q.Q.Q.Y.Q.Q.Q.Q.Q.Q.W.Q.Q.Q.Q.~.W.Q.Q.!.`._.!.!.Q.Q.",
"'._.Q.Q.Q.W.U.U.W.W.!._.!.Q.!.!.Q.`.'.`.!.Q.Q.W.~.Q.Q.L.Q.W.Y.Q.Q.Q.W.Q.Q.Q.^.Q.Q.!.W.Q._.`._.!.Q.Q.",
"Q.Q.Q.Q.W.Q.U.Y.Q.Q.Q.!.`._.!.!.`.`._.Q.Q.Q.W.W.~.Q.Y.U.W.Q.U.Y.Q.Q.Q.Q.Q.Q.Q.Q.Q.Q.Y.Q.!._._.W.^.`.",
"W.W.Q.W.W.W.W.W.W.W.Q.Q._._.!.!.`.^.!.!.Q.Q.~.Q.W.Q.W.Y.Q.Q.U.W.Q.Q.Q.Q.^.^.Q.Q.Q.Q.Q.Q.Q.Q.!.W.^.`.",
"Q.W.W.Q.Q.W.Q.W.W.W.W.Q.(._.!.(._.!.Q.!.Q.!.Q.!.Q.Q.Q.W.Q.Q.Q.Q.Q.W.W.!.'.^.Q.Q.Q.Q.Q.Q.Y.Y.W.Q.!.Q.",
"!.Q.W.Y.Y.W.Q.Q.Q.Y.U.Q.Q.!.Q.Q.!.!.W.Q.Q.Q.Q.Q.Q._.^.Q.Q.Q.W.Q.Q.Q.Q.!._._._.!.Q.Q.^.^.Q.Q.Q.Q.Q.~.",
"!.Q.Q.Y.Y.W.Q.Q.Q.W.Y.Q.Q.Q.W.Q.W.W.W.Q.Q.~.Q.Q.!.`.^.Q.!.Q.W.Q.Q.Q.Q.Q._.`._.!.!.!._._.Q.Q.Q.Q.Q.Q.",
"Q.!.Q.Q.Q.!.Q.Q.!.Q.Q.~.W.Q.Q.Q.W.Q.Q.Q.Q.Q.W.Q.Q.`.(.Q.`._.Q.W.W.Q.Q.Q.Q.^._.Q.)._.!.Y.Q.W.~.Q.Q.Q.",
"Q.Q.~.Q.Q.Q._._.Q.Q.Q.Q.Q.Q.Q.Q.Q.Y.Q.Q.W.Y.Y.W.!.Q.Q.Q.!.!.Q.Q.W.Y.W.Q.Q.Q.Q.Q.!._.Q.Q.!.Q.Q.!.!._.",
"Q.Q.Q.!.Q.!._.`.Q.Q.!.Q.W.Y.Q.Q.Q.Y.U.Q.Y.I.W.W.Q.Q.Q.W.W.W.Q.Q.Q.I.Y.~.Q.Q.Q.Q.Q.Q.Q.Q.Q.Q.Q.!.^.'.",
"`.`.`.Q.(.`.`.(.Q.Q.Q.~.U.I.Q.Q.Q.W.Q.Q.U.U.Q.Q.!.~.Q.Q.Q.Q.Y.Q.Q.Q.Q.Q.Q.Q.Q.!.Q.Y.I.I.Y.Q.Q.Q.Q.Q.",
"!._.`.Q.^.'.(./.Q.Q.Q.Q.W.Y.W.Q.!.Q.W.Q.~.~.Q.^.Q.Q.Q.Q.Q.W.Q.!.^.!.!.Q.Q.Q.Q.Q.Q.Y.W.Y.Q.Q.Q.W.Q.Q.",
"Q.!.^.!.!._.W.Y.Q.Q.Q.Q.Q.Q.Q.Q.Q.W.W.!.!.Q.Q.Q.^.Q.Q.Q.W.W.Q._._.^.!.Q.Q.Q.^.Q.W.W.Q.Q.Q.Q.Q.W.Y.Y.",
"Q.!.!.Q.Q.W.W.W.Q.Q.Q.Q.Q.Q.Q.Q.Q.Q.Q.^.!.Q.!.^._.!.^._.!.W.W.^.`._.^.!.!.^.`.Q.Q.Q.Q.Q.Q.Q.Q.Q.Y.L.",
"Q.Q.!.Q.Q.W.Y.W.Q.Q.Q.!.Q.Q.Q.Q.Q.^.^.^.!.Q.!.^.`._._.^.!.Q.Y.!._.`.^.Q.^.^.^.Q.Q.Q.^.^.Q.Q.Q.Q.Q.Y.",
"^.Q.Q.Y.W.!.U.U.Q.Q.^._._.Q.Q.Y.Q._.^.U.T.T.T.E.).).E.R.R.R.Y.Q.Q._.^.Q.'.^.Y.Y.Q.!._.`.Q.!.Q.Q.Q.Q.",
"_.^.Q.Q.Q.Q.Y.I.Q.Q.Q.!._._.Q.!.'.`.c.y y I i E E E K K H ~ Y.Q.^.Q.Q.Q.^.Q.Q.I.U.Q.^.^._._._.Q.Q.Q.",
"`.^.Q.Q.W.Q.Y.Y.Y.Q.Q.Q.^._.!._._.c./ q 1 4 s 7 6 s 6 > > u 8.z.!.Q.Q.Q.Q.Q.Q.Y.Y.Q.Q.Q._._._.Q.^.^.",
"!.Q.Q.Y.U.~.Q.Q.Q.Q.Q.Q._._.!.!.).I q ` M s v h 7 v h 5 5 , : 8.Q.Q.Q.Q.Q.Q.Y.Q.Q.Q.Q.Q.Q._._.!._.'.",
"~.Q.W.W.W.Q.W.Q.Q.Q.Q.Q.Q.Q.Q.p.U N a r g c F l , s h j 5 5 d i ^ ).^.Q.W.W.Y.Q.Q.Y.Q.Q.Y.!.Q.W.^.^.",
"W.W.Q.Q.^.Q.W.Q.Q.Q.Q.Y.Y.Y.Q.^ - B V w g n G l 5 7 h z e f b 5 I E.^.Q.W.W.W.Q.Q.Y.Q.Q.Y.Q.Q.Q.Q.!.",
"Q.Q.Q.^.^.Q.Q.Q.Q.Q.Q.Q.Q.Q.Y.~ - k Z _ r , 8 j v v j 9 G D b 5 H U.Q.Q.Q.W.W.Q.Q.Q.I.U.Q.Y.W.Q.!.Q.",
"Q.Q.Q.!.^.^.^.^.^.^.Q.Q.Q.Q.Q.^ - 7 c Z k 7 5 s h h 7 8 m m h 4 H T.Q.Q.Q.Q.Q.Q.Q.Q.Y.Q.Q.Q.W.Q.W.I.",
"!.Q.Q.W.Q._.^.^.`.^.Q.W.W.W.Q.8.t < 7 v x j f 0 0 0 9 7 z h 4 3 U U.Q.Q.Q.Q.Q.!.Q.W.Q.Q.Q.W.Q.Q.Y.I.",
"Q.!.Q.W.Q.!.Q.!.Q.Q.W.Q.Q.Q.Y.U.p.u , 7 5 w ( _ ) ) C x d 5 - ~ x.U.Q.Q.Q.Q.!._._.Q.Q.Q.W.Q.Q.Q.Q.U.",
"Q.Q.Q.Q.Q.Q.Q.Q.Q.W.W.Q.Q.^.Q.W.U.Q o , , 8 S A A A m h 5 2   u.Y.U.Y.Q.Y.Q.Q._._.Q.Q.Q.!.Q.Q.Q.Q.Q.",
"W.W.Q.Q.Q.Q.W.W.Q.W.U.Q.^.'.^.W.K.2.* 2 < 7 x v v v h 4 ; X + 5.K.U.Q.Q.W.Q.Q._.(.Q.W./._.!.W.Q.Q.Q.",
"Q.Q.Y.Q.Q.U.U.W.W.W.W.W./.`.`.L.1.w.t.9.u , 7 s 7 5 , ; W 7.*.X.3.I.Q.Q.Q.Q.Q.Q.Q.Y.Q.Q.Q.Q.!._._.`.",
"Q.!./.Q.W.U.Y.W.W.W.W.W.!.(.`.P.2.w.M.m.6.P T u .   o L &. . .#.5.Q.!.^.^.Q.Q.Q.Q.Q.Y.Q.Q.Q.!.^._.'.",
"Q.^._._.~.U.U.W.Q.Y.Y.W.Q.!.(.(.~.2.*.q.m.m.v.[ O O { 0.$ O O a.Q.Q.^.`.!.!.Q.Q.Q.Q.U.Y.Q.Q.Y.Q.^._.",
"_./.Q.Q.Q.W.Q.Q.Q.W.W.Q.Q.Q.Q.~.C.>.[ & ]  .b.0. .] ' ] | ....o.5._._.!.Y.~.Q.Q.Q.W.Y.U.Y.Q.Q.Q.!._.",
"_.!.Y.W.Q.Q.Q.Q.Q.Q.Q.Q.Q.~.P.N.b.w.,.O.[ O.=.-.*...[ $ =.b.b.} o.h.U.Y.U.Y.W.Q.Q.W.Y.Y.Y.W.Q.Q.Q.Q.",
"Q.Q.Q.Q.Q.W.Q.Q.Q.Q.Q.Q.Y.Y.M.n.Z.F.J.H.S.0.# O # ;.,.+.b.Z.Z.b.*.+ 5.Y.U.Y.Q.W.W.Q.Q.W.Y.W.W.Q.Q.Q.",
"Q.Q.Q.Q.Q.(.Q.!.Q.^.^.Q.Q.~.V.N.n.D.F.].H.A.-. .| [ ..e.b.0.} X.O.5.K.W.U.Y.Y.I.Y.Q.Q.Q.Q.Q.W.Y.W.Q.",
"Q.Q.Q.Q.!.^.^.^.Q.^.^.Q.Q.Q.Q.V.M.M.B.F.F.F.D.B.;.# | n.0.} @ @ 3.W.Q.Q.Q.Y.Y.P.Y.!.W.W.Q.Q.W.U.U.Q.",
"Q.Q.Q.Q.Q.Q._.^.Y.Y.Q.Q.Q.Q.Q.Q.~.y. .>.w.Z.].D.q.# { q.' & %.a.K.Q.Q.Q.Q.Q.Y.Y.Q.Q.Q.!.Q.W.W.P.Y.Q.",
"Q.Q.Q.Q.Q.Q.^.Q.Q.Q.W.Q.Q.Q.Q.Q.~.g.y.2.<.r.e.q.*.# $ X.o.4.s.K.Y.W.Q.Q.Q.Q.Q.Q.Q.Q.!.^.Q.Q.Q.Y.Y.Q.",
"Q.Q.Y.Q.Q.Q.Q.!.Q.Q.Q.Y.W.~.Q.Q.W.U.K.U.2.#.@.@.$.% @ = d.k.T.Q.Q.Y.Q.Q.Y.Q.Q.Q.Q.Q._._.^.Q.Q.Q.Y.Y.",
"Q.Q.W.Q.Q.Q.Q.Q.W.Y.Y.U.Q.Q.Q.W.Y.U.U.W.K.g.j.y.a.d.h.h.U.Q.Q.Y.W.Q.Q.Q.Q.Q.Y.Q.!.Q.^.^._.^.Q.Q.Q.Q.",
"Q.W.W.Q.Y.Y.Y.Q.Q.Y.Y.Q.Q.Q.Q.Q.W.Y.Y.W.W.I.k.U.L.L.U.!.Q.Q.Q.Q.Q.Q.!.!.Q.Q.Q.^.!.Q.Q.!._.^.Q._.!.Q.",
"Y.Q.Q.W.Y.L.Y.W.!.Q.Q.Q.Q.Q.Q.^.!.W.Y.Y.Q.Q.W.W.Q.Y.Q.Q.Q.Q.Y.Q.Q.Q.^._.^.Q.Q._.^.~.Q.!._.(.!.`.!.Y.",
"Q.Q._.Q.Q.Y.Y.W.Q.Q.Q._.!.!.Q.Q.Q.W.W.~.Q.Q.W.Q.Q.Y.Y.Y.Q.Q.Q.Q.Q.Q.Q.^._.^.Q._.!.Y.Q.Q.!.Q.Q.!.Q.Q.",
"Q.(.(.(.!._.Q.Q.Q.!._.'.^.Q.W.W.Q.Q.Q.^.!.Q.W.Q.!.Q.U.L.Q.Q.Q.Q.Q.Q.Q.!._.!.W.^.!.Q.Q.Q.Q.Q.W.Q.Q.Q.",
"Q.Q.^._._.'._.Q.Q._.'._.^.!.Q.Q.Q.!.^.'.^.!.!._._.!.Y.U.Y.Q.Q.Q.Q.Q.Q.Q.!.Q.!.!.Q.Q.W.W.Q.Q.Y.Q.Q.Y.",
"Q.Q.Q.!._._._._.Q._._.^.!.Q.Q.~.W.Q.!.^.^.^.!.^.'.!.Q.W.Q.Q._.Q.Q.Q.W.Q.W.Q.Q.~.W.W.W.Q.Q.Q.W.Q.Y.I.",
"Q.Q.Q.Q.!.(._._.^.!.^.Q.Q.Q.W.W.W.Q.Q.Q.^.^.^.^.`.Q.Q.Q.Q.^._.^.!.Q.Q.Q.W.Q.W.W.W.W.Q.Q.Q.Q.Q.W.U.U.",
"Q.Q.W.Q.Q.W._._.Q.Q.W.Q.W.U.W.Q.Q.Q.W.Q.Q.Q.Q.Q.Q.Q.Q.Y.Q.Q.Q._.^.!.Q.!.Q.W.W.Y.Q.Q.W.Q.L.Q.Q.Q.Y.U.",
"!.Q.Q.Q.Q.Q.!.!.Q.Q.Q.Q.~.Q.Q.Q.Q.Q.W.Q.Q.Q.Q.W.Y.Q.Y.Q.Q.Q.Q._._.!.^.^.!.Q.~.Y.Y.Q.Q.Q.Y.Q.Q.Q.~.Y.",
"!.Q.Q.Q.Q.Q.Q.Q.Q.Q.Q.~.Q.Q.Q.Q.Q.W.Q.Q.!.Q.!.Y.I.I.Q.Q.Q.Q.Q._.^.!.^.`.!.!.Q.U.U.W.Q.Q.!.Q.!.Q.W.Y."
};
