/* XPM */
static char *result[] = {
/* columns rows colors chars-per-pixel */
"50 50 150 2 ",
"   c #1C1117",
".  c #1E151A",
"X  c #1E1919",
"o  c #21181B",
"O  c #2B2519",
"+  c #23281E",
"@  c #1F1921",
"#  c #211D26",
"$  c #252B26",
"%  c #252529",
"&  c #252828",
"*  c #30252A",
"=  c #27322A",
"-  c #2A3B2B",
";  c #2B352D",
":  c #262A35",
">  c #292E32",
",  c #272E3A",
"<  c #29313E",
"1  c #293437",
"2  c #2C4427",
"3  c #2D462F",
"4  c #31542D",
"5  c #345C2F",
"6  c #3C502D",
"7  c #2E4534",
"8  c #2F4838",
"9  c #304E36",
"0  c #30493B",
"q  c #325730",
"w  c #33553E",
"e  c #376633",
"r  c #3B703B",
"t  c #464B1D",
"y  c #474B1E",
"u  c #4B521D",
"i  c #525B1E",
"p  c #404F28",
"a  c #58562F",
"s  c #454E31",
"d  c #41622B",
"f  c #5E6E22",
"g  c #52612D",
"h  c #586933",
"j  c #6C7F22",
"k  c #717E35",
"l  c #2F3641",
"z  c #2C3947",
"x  c #2E3E4B",
"c  c #364A4E",
"v  c #375A47",
"b  c #3A5559",
"n  c #386647",
"m  c #3B6E4C",
"M  c #3C724E",
"N  c #3E784E",
"B  c #375668",
"V  c #3B5B64",
"C  c #395B70",
"Z  c #3D677E",
"A  c #3D6475",
"S  c #4D4346",
"D  c #554C4E",
"F  c #4D595A",
"G  c #585357",
"H  c #555250",
"J  c #615758",
"K  c #407C4E",
"L  c #497859",
"P  c #685F60",
"I  c #536162",
"U  c #527B62",
"Y  c #4A7B7A",
"T  c #467275",
"R  c #726968",
"E  c #726B62",
"W  c #826A2B",
"Q  c #6E8222",
"!  c #708423",
"~  c #768D24",
"^  c #7A9224",
"/  c #408044",
"(  c #42854C",
")  c #438C4B",
"_  c #46934A",
"`  c #479949",
"'  c #489E48",
"]  c #458759",
"[  c #67874D",
"{  c #4BA747",
"}  c #478566",
"|  c #4E986E",
" . c #488577",
".. c #4E8D7A",
"X. c #519D78",
"o. c #658274",
"O. c #839E26",
"+. c #80992A",
"@. c #86A226",
"#. c #8CAB26",
"$. c #95B727",
"%. c #97BA28",
"&. c #99BD28",
"*. c #9EC429",
"=. c #A0C729",
"-. c #A5CD2A",
";. c #A7D02A",
":. c #ABD42A",
">. c #AED82D",
",. c #B0DA2E",
"<. c #ADD630",
"1. c #AFD830",
"2. c #B3DC32",
"3. c #B7E035",
"4. c #B8E236",
"5. c #88964C",
"6. c #D0B749",
"7. c #406E87",
"8. c #4B7B91",
"9. c #527B90",
"0. c #518B88",
"q. c #55978E",
"w. c #559392",
"e. c #56989B",
"r. c #57A48E",
"t. c #5CA39E",
"y. c #5CAF98",
"u. c #569BA5",
"i. c #5192A0",
"p. c #5BA7AE",
"a. c #5EA7A2",
"s. c #5FAFB4",
"d. c #62B5A4",
"f. c #63B5B4",
"g. c #729390",
"h. c #68C4B7",
"j. c #69C4BC",
"k. c #6ECFC5",
"l. c #72D6CE",
"z. c #A49D99",
"x. c #8EAAA6",
"c. c #AEA6A1",
"v. c #C0CCBA",
"b. c #8CC5C5",
"n. c #91D4C8",
"m. c #A9DFD7",
"M. c #A7E3DA",
"N. c #C8D0CF",
"B. c #E2DCD4",
"V. c #F8F2E9",
/* pixels */
":.:.:.;.;.:.:.:.-.:.:.:.:.:.*.-.:.:.>.:.3.3.:.:.:.:.;.;.:.:.:.:.:.-.:.:.:.:.-.=.-.:.:.,.4.,.:.:.:.:.",
",.,.:.:.:.:.;.-.;.:.:.>.>.:.:.:.:.,.,.,.,.,.:.:.:.:.:.;.;.:.:.:.:.;.:.:.:.:.;.;.;.:.:.:.4.2.,.,.>.:.",
"4.2.:.:.:.;.=.=.;.:.>.1.1.:.:.:.>.2.3.2.>.:.:.:.:.:.;.*.:.:.;.:.:.:.:.:.:.:.:.:.:.:.:.:.2.3.2.:.:.:.",
":.:.:.:.;.:.-.=.:.:.:.:.2.3.>.,.3.3.2.>.:.:.;.-.;.:.;.*.;.;.=.-.:.:.:.:.:.:.:.;.:.:.;.:.,.2.,.;.,.3.",
";.:.:.:.;.:.-.-.:.;.:.:.>.3.>.>.3.,.>.>.:.:.:.;.;.:.;.-.:.;.-.-.:.:.:.:.,.>.:.:.:.:.:.:.:.:.:.;.,.,.",
":.;.-.:.:.-.:.:.;.-.;.:.>.,.>.:.2.>.:.:.:.:.:.:.:.:.:.:.:.:.:.:.:.;.:.:.3.,.:.>.:.:.:.>.;.;.:.:.>.:.",
":.:.;.-.-.-.:.:.:.-.-.:.>.>.:.:.>.:.;.:.:.:.:.:.:.,.>.:.:.:.;.:.:.:.:.>.2.3.,.>.:.:.,.,.:.:.:.:.:.:.",
":.:.:.-.-.;.:.:.:.;.-.:.:.:.;.:.:.:.:.:.:.:.:.:.>.3.,.:.>.:.;.:.:.>.:.>.,.2.3.>.:.,.,.,.:.:.:.:.:.;.",
":.:.:.:.:.>.:.:.:.:.:.:.:.:.:.:.;.;.:.:.:.:.;.:.>.,.>.:.2.2.:.:.;.:.:.:.:.>.,.:.>.3.:.;.:.:.:.:.:.:.",
">.:.:.:.:.:.,.2.>.:.:.:.;.:.:.:.:.;.;.:.;.-.-.;.>.>.:.:.:.>.:.:.:.;.;.:.:.:.:.:.:.,.:.:.:.:.:.:.>.,.",
":.:.:.:.:.>.3.3.:.:.:.:.;.-.:.:.:.-.-.:.*.-.:.:.:.:.:.-.;.:.:.:.:.=.;.:.:.:.:.:.:.:.:.:.:.:.:.:.,.3.",
"2.3.3.>.1.3.3.1.:.:.:.;.-.*.:.:.:.:.:.;.-.*.:.:.:.:.:.:.:.:.;.:.:.:.:.:.:.:.:.:.:.:.=.=.;.:.:.:.>.>.",
">.2.3.>.>.3.1.:.:.:.:.:.:.;.:.:.:.:.;.:.:.:.:.:.:.:.:.:.:.;.:.:.,.:.:.:.:.:.:.:.:.-.-.;.:.:.:.;.:.:.",
">.>.2.>.>.,.;.;.;.:.:.:.:.:.;.:.:.:.;.:.:.:.:.:.>.:.:.>.;.;.:.2.3.:.>.:.:.:.>.:.:.-.:.:.:.:.:.;.-.-.",
":.>.>.:.:.;.;.;.:.:.:.:.:.:.:.:.:.:.:.,.>.>.:.,.2.>.,.3.:.:.:.>.3.3.,.>.:.,.2.,.:.:.:.:.:.:.:.:.-.=.",
":.:.:.:.:.:.-.-.:.:.:.:.:.:.:.:.>.,.,.>.:.:.>.2.3.,.>.2.:.:.;.:.,.3.,.>.,.,.,.:.:.:.>.,.:.:.:.:.:.=.",
":.:.:.;.:.:.-.-.:.:.,.3.,.>.;.:.>.3.,.;.:.:.>.>.3.3.2.>.:.:.-.:.,.2.>.:.3.,.;.-.;.:.2.3.,.>.:.>.:.:.",
",.,.:.:.:.:.=.=.:.:.:.<.,.,.>.,.,.3.,.:.:.:.:.:.>.2.1.;.;.;.-.:.:.,.:.:.<.>.:.=.;.:.,.,.,.2.2.:.:.>.",
"3.,.:.:.:.:.-.-.;.:.:.:.,.2.<.,.3.,.>.:.:.:.:.:.:.1.<.;.;.;.*.:.:.:.:.:.:.:.:.-.;.:.:.>.,.3.2.:.,.,.",
":.:.:.=.=.-.:.:.:.;.:.:.2.2.<.1.2.>.:.;.:.:.:.:.:.;.;.:.:.;.*.;.:.:.:.>.:.;.;.:.;.;.:.:.:.,.2.:.,.4.",
":.;.;.;.:.:.;.:.:.:.:.:.:.:.:.:.:.Q a i i i i i i i ^ :.:.@.i i ! :.<.:.;.-.;.:.;.;.:.:.;.:.:.:.,.,.",
":.:.:.:.,.:.:.;.:.:.:.;.;.;.:.:.=.t X : : > : : : : g @.^ ~ D * u :.,.:.;.;.;.;.:.;.;.;.;.:.:.;.:.:.",
":.:.:.,.,.:.:.:.:.:.:.:.:.:.;.;.-.t < Z A Z Z Z Z Z c O O R B.G t =.:.:.:.:.;.:.:.:.-.-.:.;.;.:.:.:.",
":.:.:.:.,.,.,.,.,.>.:.:.;.:.;.:.=.t < 7.i.p.p.p.p.p.e.Y Y x.V.P t =.:.:.:.:.:.:.:.:.;.;.:.;.;.:.:.:.",
":.:.:.;.:.3.,.>.2.,.:.;.;.;.:.:.=.t < 7.s.l.l.l.l.l.l.l.l.M.V.P y =.;.:.:.:.:.>.:.:.:.:.:.;.:.:.-.=.",
":.>.:.;.:.:.:.:.>.:.;.:.:.:.;.;.=.y < 7.s.l.l.l.l.l.l.l.l.M.V.P t &.;.:.;.:.,.3.2.:.:.:.;.:.:.:.:.-.",
":.:.:.:.:.:.:.:.:.;.=.:.>.,.>.;.*.y < 7.s.l.l.l.l.l.l.l.l.M.V.P t $.;.:.;.;.:.,.2.:.:.:.>.:.;.:.:.:.",
":.:.:.:.:.:.;.:.:.:.=.:.,.2.,.:.*.y < 7.s.l.l.l.l.l.l.l.l.M.V.P y &.;.:.:.:.:.,.>.:.;.>.2.>.:.>.:.:.",
":.;.:.:.:.=.-.;.;.;.;.;.1.2.2.,.=.t < 7.s.l.l.l.l.l.l.l.l.M.V.P t =.:.:.:.:.:.>.:.:.:.:.,.:.:.,.3.,.",
":.>.:.:.;.=.=.;.;.:.;.;.>.2.4.,.=.t < 7.s.j.w.0.0.0.0.0.0.g.z.S t =.,.,.>.>.:.:.:.-.-.:.:.:.:.,.,.3.",
":.,.2.,.;.=.-.;.:.-.=.:.:.>.2.<.=.t < 7.s.t.% . . . .   . . . . y =.,.3.:.:.:.:.:.:.=.=.:.:.;.:.,.3.",
",.,.:.;.;.;.:.:.:.:.-.:.:.:.:.O.u O < 7.s.j.e.w.w.w.b     D c.S O u @.>.-.;.:.:.:.:.-.=.;.;.:.:.>.>.",
"2.>.;.;.;.:.:.:.:.:.:.:.:.:.;.j     < 7.s.l.l.l.l.l.Y     R V.P     j ;.=.-.;.:.:.;.-.-.-.;.:.:.:.:.",
">.:.:.:.:.;.:.:.:.:.:.;.-.;.:.Q     < 7.s.l.l.l.l.l.Y     R V.P     ! =.*.-.:.;.;.:.:.;.-.;.;.:.:.:.",
":.:.:.:.:.,.:.:.>.,.,.:.:.:.:.j X ; 0 z b T e.u.u.u.B     I M.F     ! ;.-.-.;.-.-.:.:.:.:.:.;.-.-.;.",
":.;.;.:.,.,.,.,.:.,.,.>.:.:.;.j   w v & + , B C C C z   o c a.v + . ! :.;.;.-.=.-.:.:.;.:.:.;.=.-.;.",
":.:.:.:.:.:.,.,.;.-.:.:.:.:.:.Q X w m n n w % # # # @ .   @ > r e o ! :.:.:.-.-.:.:.:.>.:.:.-.*.-.:.",
":.:.;.:.:.:.,.>.:.:.;.:.:.:.:.#.f 6 9 M ( K e 5 q 9 a W p 9 5 5 d f #.:.:.:.:.:.:.>.,.,.:.:.;.;.;.:.",
":.:.;.:.,.:.:.:.:.:.;.-.-.-.:.:.*.t = M _ { { { ' N 5.6.[ ( { 2 t =.:.:.-.;.:.:.:.:.,.,.>.>.:.:.;.;.",
">.:.;.:.:.:.:.:.-.-.-.-.:.:.:.:.*.y = m _ { { { ' N U o.L ( { 2 t =.:.:.:.;.;.:.>.:.>.,.3.,.:.:.:.:.",
":.-.:.:.:.=.;.:.:.-.:.:.:.:.:.:.=.t = m _ { { { ' K  .u.q.| ) - t -.>.>.:.:.:.>.>.:.:.>.3.>.>.,.:.:.",
"-.:.:.-.-.=.=.;.:.:.:.,.:.:.:.:.=.t = K _ { { { ' ( r.l.l.d.L ; t =.,.,.>.:.>.3.>.;.:.>.,.>.>.3.>.-.",
":.>.2.:.:.;.-.;.:.:.,.,.>.:.:.:.=.t ; m _ { { _ ] y.h.l.l.n.v.H t -.>.>.,.,.;.,.:.;.:.:.:.:.:.>.:.:.",
":.>.2.,.<.1.:.:.:.:.,.3.,.:.;.$.~ 6 9 ( ` { { ) } j.l.l.l.M.V.P t =.:.>.2.>.:.,.>.:.:.:.:.:.;.:.:.:.",
":.:.>.2.2.4.2.:.>.2.4.2.,.:.:.~ o w ( { { { { ) } h.l.l.l.M.V.P t *.:.:.:.:.:.:.:.:.;.;.>.;.;.:.:.-.",
":.:.:.>.2.2.2.,.:.,.2.,.:.:.:.Q X w ( { { ' ) X.d.k.l.l.l.m.V.P t =.:.:.:.:.:.:.:.;.:.:.:.:.;.:.-.=.",
":.:.:.:.>.1.2.2.>.,.:.:.:.:.;.j X w ( { { ` N ..t.t.a.a.f.b.N.G t =.>.:.;.;.:.;.;.;.:.:.:.:.:.;.-.*.",
":.:.;.:.:.:.2.,.:.:.;.:.;.=.:.Q X w ( { { ` N 0 % % % > A 8.9.l u -.:.:.:.:.-.-.;.:.:.;.=.;.:.:.-.*.",
":.:.:.:.:.:.:.,.:.:.:.:.;.-.:.Q X $ 2 4 4 4 2 7 8 8 $ . < x x h +.;.,.,.,.:.:.-.;.;.:.:.;.:.:.:.:.-.",
":.:.:.:.>.:.:.:.:.>.:.:.:.:.:.Q   X           7 M M 8       o +.,.:.,.3.>.:.:.=.=.-.:.:.:.:.:.:.;.-."
};
