/* XPM */
static char *result[] = {
/* columns rows colors chars-per-pixel */
"50 50 165 2 ",
"   c #1D1217",
".  c #1E161A",
"X  c #1F181E",
"o  c #211F1F",
"O  c #2B2519",
"+  c #3B3C1D",
"@  c #37351C",
"#  c #201A20",
"$  c #232522",
"%  c #242A24",
"&  c #28292B",
"*  c #30252A",
"=  c #263222",
"-  c #27322A",
";  c #28362B",
":  c #2A3B2B",
">  c #363022",
",  c #242631",
"<  c #392F33",
"1  c #2A3332",
"2  c #2B3E31",
"3  c #29323E",
"4  c #2D3A3D",
"5  c #3D3236",
"6  c #493820",
"7  c #3C411D",
"8  c #2F4D2B",
"9  c #2C4328",
"0  c #30502E",
"q  c #2C4131",
"w  c #2F4B38",
"e  c #2E453B",
"r  c #395436",
"t  c #33553E",
"y  c #345B3B",
"u  c #386933",
"i  c #3F7032",
"p  c #464B1D",
"a  c #494E1E",
"s  c #43471C",
"d  c #4A501D",
"f  c #535C1E",
"g  c #444D21",
"h  c #495221",
"j  c #606E20",
"k  c #6C7F22",
"l  c #647222",
"z  c #2C3A47",
"x  c #2C3947",
"c  c #324446",
"v  c #345940",
"b  c #324857",
"n  c #334C5E",
"m  c #304555",
"M  c #3A5455",
"N  c #3D5C5D",
"B  c #396646",
"V  c #3A6C43",
"C  c #3C724E",
"Z  c #3E794E",
"A  c #3D7645",
"S  c #3E735A",
"D  c #365365",
"F  c #3F6878",
"G  c #3B6177",
"H  c #40474A",
"J  c #474343",
"K  c #554B4D",
"L  c #425340",
"P  c #405D5D",
"I  c #595C5C",
"U  c #615758",
"Y  c #407C4E",
"T  c #567E54",
"R  c #637943",
"E  c #73764E",
"W  c #685F60",
"Q  c #426A6C",
"!  c #406463",
"~  c #437C68",
"^  c #416A74",
"/  c #4A7B7A",
"(  c #626565",
")  c #706767",
"_  c #726968",
"`  c #6E8222",
"'  c #768D24",
"]  c #798D29",
"[  c #7B9324",
"{  c #7F9729",
"}  c #7F9924",
"|  c #42844C",
" . c #438C4B",
".. c #428A42",
"X. c #449240",
"o. c #489D47",
"O. c #46944A",
"+. c #479949",
"@. c #489E48",
"#. c #468D57",
"$. c #489355",
"%. c #698758",
"&. c #4BA747",
"*. c #4AA248",
"=. c #478566",
"-. c #45806E",
";. c #519B7A",
":. c #839E27",
">. c #89A526",
",. c #90AD2E",
"<. c #91B227",
"1. c #94B529",
"2. c #97BA28",
"3. c #9ABD2A",
"4. c #CBA93A",
"5. c #9EC429",
"6. c #A0C729",
"7. c #A5CD2A",
"8. c #A7D02A",
"9. c #ABD42A",
"0. c #AED82D",
"q. c #B0DA2E",
"w. c #ACD331",
"e. c #AFD830",
"r. c #B3DC32",
"t. c #B7E035",
"y. c #B8E236",
"u. c #838840",
"i. c #949961",
"p. c #406E87",
"a. c #43748C",
"s. c #487F8E",
"d. c #417280",
"f. c #4B8085",
"g. c #509683",
"h. c #4E8B9B",
"j. c #498094",
"k. c #58A78C",
"l. c #5598A4",
"z. c #5BA5A2",
"x. c #5FAEB4",
"c. c #61B7A6",
"v. c #61B0AB",
"b. c #62B4B5",
"n. c #63B7B9",
"m. c #68C4B7",
"M. c #67C0BE",
"N. c #69C2BC",
"B. c #67C0B5",
"V. c #7DC5B7",
"C. c #6DCCC7",
"Z. c #6BC7C2",
"A. c #72D6CE",
"S. c #78D4CC",
"D. c #808886",
"F. c #A59D99",
"G. c #8BA78F",
"H. c #99CDC6",
"J. c #8BC9C7",
"K. c #A2D6CF",
"L. c #A7E3DA",
"P. c #E2DCD4",
"I. c #CFE9DF",
"U. c #CAE7DE",
"Y. c #F8F2E9",
/* pixels */
"9.9.9.8.8.9.9.9.8.8.9.0.9.9.5.8.9.9.9.0.t.t.9.9.9.0.8.8.9.9.9.9.9.7.9.9.9.9.7.6.7.9.9.q.y.q.0.9.9.9.",
"q.q.9.9.9.9.8.7.8.9.9.0.0.9.8.9.9.0.q.0.q.0.0.9.9.9.8.7.9.9.9.9.9.9.7.9.9.9.9.7.9.9.9.9.y.q.q.0.9.0.",
"y.r.9.9.9.7.6.6.8.8.0.q.0.0.9.0.0.r.t.r.0.9.9.8.8.9.8.6.8.9.7.9.9.9.9.8.9.9.9.9.9.9.9.9.r.y.r.9.0.0.",
"9.9.9.9.9.9.7.6.9.9.9.0.q.r.0.0.t.t.r.0.9.9.8.8.8.9.8.6.8.8.6.7.9.9.9.9.9.9.9.9.9.9.8.8.q.q.q.8.0.r.",
"8.9.8.9.8.8.8.7.8.9.9.9.q.t.0.q.t.r.0.9.9.9.9.8.8.9.8.7.9.9.7.7.9.9.9.9.q.q.9.9.9.9.9.9.9.9.9.9.q.q.",
"9.8.8.9.9.7.9.9.8.7.8.9.q.q.9.0.q.0.9.9.9.0.9.9.9.9.9.9.9.9.9.9.9.8.9.0.r.q.9.q.9.9.q.9.6.8.9.9.0.9.",
"9.9.8.7.7.7.9.9.8.8.7.9.0.0.8.9.q.9.9.9.9.9.9.9.9.q.0.9.9.9.9.9.9.9.0.0.q.t.q.0.9.0.q.q.9.9.9.9.9.8.",
"9.9.9.7.7.8.9.9.9.8.7.9.9.9.9.8.9.8.8.0.9.9.9.9.0.t.q.9.9.9.8.9.9.9.9.0.q.r.t.9.9.q.q.q.9.9.9.9.9.8.",
"9.9.9.9.9.9.9.9.9.9.9.8.9.9.9.9.8.9.9.9.9.9.7.9.9.q.0.9.q.q.9.9.8.9.9.9.9.q.0.9.0.t.9.7.9.8.9.9.9.9.",
"0.9.9.9.9.9.r.r.0.9.9.9.8.8.9.9.9.8.8.9.8.7.7.9.0.q.9.8.0.0.9.9.8.8.8.9.9.9.q.9.0.0.9.9.9.9.9.9.0.q.",
"0.0.9.9.0.0.t.t.9.9.9.9.8.7.9.9.9.7.7.9.7.6.9.9.9.9.9.8.8.9.9.9.9.6.7.9.9.9.9.9.9.9.9.9.9.9.9.9.q.t.",
"q.r.r.q.0.t.t.e.0.9.9.8.7.7.9.9.9.9.8.8.6.7.9.9.9.9.9.9.9.9.8.9.9.9.9.9.9.9.9.9.9.8.7.7.7.9.9.9.9.0.",
"q.r.t.0.q.t.e.w.9.9.9.9.8.8.8.9.9.9.8.9.9.8.9.9.9.9.9.9.9.8.9.0.q.q.9.9.9.9.q.9.9.7.8.8.9.9.9.9.9.9.",
"0.0.q.0.0.q.8.7.8.9.9.9.9.9.8.9.9.9.9.9.9.0.9.9.9.9.9.0.8.8.9.q.q.q.9.0.9.q.9.9.8.8.9.9.9.9.9.8.8.8.",
"9.0.9.0.9.9.8.8.9.9.9.8.9.9.9.9.9.9.9.q.0.9.9.q.t.9.q.t.0.9.8.q.r.y.q.0.9.q.r.0.9.9.9.9.9.9.9.9.7.6.",
"9.9.9.9.9.8.7.7.9.9.9.0.9.9.9.9.9.q.0.0.9.0.9.q.t.r.q.q.0.8.8.0.q.t.q.9.q.q.0.9.9.9.0.0.9.9.9.9.8.7.",
"q.9.9.7.9.9.6.7.9.9.q.r.q.0.8.8.9.t.q.8.8.9.9.q.r.y.q.9.9.9.7.9.0.q.0.0.r.q.8.7.9.0.r.r.0.0.0.9.0.9.",
"q.q.9.9.9.9.7.6.9.9.0.q.r.r.9.q.t.t.q.9.9.9.9.9.q.r.0.8.8.8.8.8.0.0.9.8.0.0.9.6.7.9.q.q.r.r.q.9.9.9.",
"q.q.9.9.8.9.7.7.7.9.9.9.q.r.0.q.r.<.} [ [ [ ' [ [ :.<.7.9.<.' [ >.9.8.9.9.9.9.7.7.9.9.0.q.r.r.9.q.q.",
"9.q.9.7.6.7.9.9.9.9.8.0.q.r.0.0.w.d . .   o     o   j 9.9.'   o a 7.9.0.9.9.7.9.9.8.9.9.0.r.q.9.q.y.",
"9.8.8.8.8.9.8.9.9.9.9.9.8.w.9.0.7.h , n n n n n n D L f f E F.g a 8.q.9.8.7.8.9.9.7.9.9.8.0.0.8.9.q.",
"9.8.9.9.0.9.9.8.9.9.9.7.8.8.9.9.6.p 3 p.j.h.h.h.h.h.^ x z D.Y.) a 9.0.9.8.8.8.8.9.8.8.8.8.9.9.8.9.9.",
"9.9.9.0.q.0.9.0.9.9.9.9.9.9.8.8.6.a 3 p.x.C.C.C.C.C.Z.M.M.K.Y.W p 6.9.9.9.8.8.9.9.9.6.7.9.8.8.9.9.9.",
"9.9.9.0.q.q.0.0.q.0.9.9.9.8.9.9.6.a 3 p.x.S.A.A.A.A.S.S.S.L.Y.W d 6.9.9.9.9.9.9.9.8.8.8.9.8.8.9.9.8.",
"9.9.9.8.9.r.q.q.r.q.9.8.7.9.9.9.6.s z p.b.A.A.A.A.A.A.A.A.L.Y.W p 6.9.9.9.9.0.0.9.9.9.9.9.8.9.9.8.6.",
"9.q.9.8.9.9.q.9.0.9.8.9.9.9.8.7.6.s 3 p.x.A.A.A.A.A.A.A.A.L.Y.W s 3.9.9.8.9.0.r.r.9.9.9.8.9.9.9.8.8.",
"9.9.9.9.9.9.9.9.0.8.7.9.0.q.9.8.5.s 3 p.x.A.A.A.A.A.A.A.A.L.Y.W s 2.8.9.8.8.0.r.r.9.9.8.0.9.9.9.9.9.",
"8.9.9.9.9.9.8.8.9.7.6.9.q.r.q.9.5.p 3 p.x.A.N.N.M.Z.n.Z.N.H.P.U s 2.8.9.8.9.9.q.0.9.9.0.r.0.8.0.9.9.",
"9.9.9.9.8.7.7.7.8.9.8.8.r.r.r.q.6.p 3 p.x.v.M c c c c z c H K * p 6.9.9.9.9.9.0.8.8.9.0.q.9.9.q.q.t.",
"9.9.0.9.8.6.7.8.8.8.8.8.0.r.r.r.6.p 3 p.b.b.! N P P 4   o < ) < p 7.q.q.q.9.9.9.9.9.7.8.9.9.9.q.t.t.",
"9.q.r.0.8.6.6.8.9.7.6.9.9.0.r.e.6.p 3 p.x.A.A.A.S.A./     ) Y.W p 6.q.t.0.9.9.9.9.9.6.7.9.9.8.9.q.q.",
"q.q.9.8.8.8.9.9.9.8.8.9.9.9.9.:.a O 3 p.x.A.A.A.A.A./     ) Y.W O d >.9.7.8.9.9.9.9.6.6.8.8.9.9.q.q.",
"r.9.9.7.8.9.9.9.9.9.9.9.9.9.8.k . $ 4 D s.z.n.n.n.n.^     ( I.I     k 8.6.7.8.9.8.8.7.7.7.8.9.9.9.0.",
"9.0.0.9.9.8.9.9.9.9.9.9.7.8.9.` . t t X X 1 F a.a.a.b     P S.M     k 6.6.7.9.8.8.9.9.9.7.7.8.9.9.9.",
"9.9.9.9.0.q.9.9.9.q.q.9.9.9.9.k X y B w w e z z z z ,   o & N B 9 o ` 9.7.7.8.7.7.9.9.8.9.9.9.7.7.8.",
"9.9.7.9.q.q.q.q.9.0.q.0.9.9.8.[ > r B C Z V : = = % > 6 = % = u i + :.9.8.8.7.6.7.9.9.9.9.9.8.5.7.8.",
"9.9.9.9.9.0.q.r.8.8.8.9.9.9.9.7.<.g 2 C O.o.X.X...V u.4.R C X.8 d <.7.9.9.9.7.7.9.9.9.9.9.9.7.5.8.9.",
"9.9.8.9.9.9.0.0.9.8.9.9.8.9.9.9.5.p - C O.&.&.&.@.Y %.i.T | &.9 p 6.9.9.8.9.9.9.9.9.q.q.9.9.8.8.8.8.",
"9.9.8.9.9.9.9.9.9.9.8.7.7.8.9.9.5.s - C O.&.&.&.*.| ~ s.-.#.o.9 p 5.9.9.8.8.9.9.9.9.t.q.0.0.9.9.8.8.",
"9.9.8.9.9.9.9.9.7.7.7.7.9.9.9.8.5.s - C O.&.&.&.+.Z g.M.B.k.Z : p 6.9.9.9.8.8.9.9.9.0.q.t.q.9.9.9.9.",
"9.8.9.9.7.7.8.8.8.8.8.9.9.9.9.9.5.s - C O.&.&.+.$.;.c.A.A.V.G.J a 6.0.0.9.9.9.q.q.9.9.q.r.q.0.q.9.9.",
"7.8.9.8.7.6.7.8.9.9.9.q.9.9.9.9.5.p : C O.&.&. .=.m.A.A.A.L.Y.W p 7.0.q.0.9.0.r.q.8.9.0.r.0.0.t.0.7.",
"9.0.e.w.8.8.8.8.9.9.0.q.0.9.9.:.p y V O.*.&.&. .=.m.A.A.A.L.Y.W p 7.0.q.r.0.9.q.0.8.9.9.0.9.9.0.9.9.",
"9.0.q.q.q.q.9.8.9.q.q.t.q.9.8.k . t | &.&.&.&. .=.z.b.b.b.J.I.I p 6.9.q.q.0.9.q.9.9.8.9.9.9.8.9.9.9.",
"0.0.0.0.r.y.q.0.q.r.y.r.q.9.9.` . t | &.&.&.&. .S d.a.a.a.l.S.M p 5.9.9.9.9.9.9.9.9.8.8.9.9.8.9.9.7.",
"9.9.9.0.r.r.r.r.9.q.r.q.9.9.9.` . v | &.&.@. .y 1 3 z x G p.M , p 6.9.9.8.9.9.9.8.8.9.9.9.9.9.8.7.6.",
"9.9.9.9.0.q.r.q.q.0.9.9.9.8.9.k . t Y +.*.+.Z 2 . $ X X x x o @ l 8.9.9.9.8.9.8.8.8.9.9.9.9.9.8.6.6.",
"9.9.8.9.9.9.r.q.9.9.8.9.7.7.9.` . v Z Z O.+.Z q o v q     o   ] 9.9.9.9.9.8.7.8.8.9.9.8.6.8.9.9.7.5.",
"0.9.9.9.9.9.0.0.9.9.9.8.8.8.9.`   = : : 8 8 2 $ o & $     @ k 3.r.0.q.q.q.9.8.7.7.9.9.9.7.9.9.9.9.7.",
"9.9.9.9.9.9.9.9.9.9.9.9.9.9.9.`   o           o           f 9.q.r.9.r.r.0.9.9.6.6.8.9.9.9.9.9.9.9.7."
};
