/* XPM */
static char *result[] = {
/* columns rows colors chars-per-pixel */
"50 50 162 2 ",
"   c #1C1117",
".  c #1E1519",
"X  c #251D19",
"o  c #22231E",
"O  c #2A251A",
"+  c #2B281F",
"@  c #23281E",
"#  c #302F1C",
"$  c #392A1D",
"%  c #3B3C1C",
"&  c #31331C",
"*  c #222221",
"=  c #252C25",
"-  c #23232B",
";  c #352A2E",
":  c #27322A",
">  c #293829",
",  c #282F3C",
"<  c #262B36",
"1  c #362B30",
"2  c #2B3E31",
"3  c #2A323D",
"4  c #2B3539",
"5  c #453B3E",
"6  c #2C4427",
"7  c #2D462C",
"8  c #2F4C2D",
"9  c #30412D",
"0  c #32562D",
"q  c #2D4233",
"w  c #2E4537",
"e  c #304D3B",
"r  c #37443C",
"t  c #35553C",
"y  c #396D35",
"u  c #3F7F3E",
"i  c #3E7335",
"p  c #464B1D",
"a  c #4A4F1F",
"s  c #43471C",
"d  c #4F571E",
"f  c #51591E",
"g  c #414C24",
"h  c #455623",
"j  c #434E30",
"k  c #48593F",
"l  c #5A6D25",
"z  c #5C6F3F",
"x  c #606D21",
"c  c #687626",
"v  c #7A7D3D",
"b  c #2D3D4B",
"n  c #2E414D",
"m  c #364C4E",
"M  c #30424A",
"N  c #2E4050",
"B  c #304455",
"V  c #344C5A",
"C  c #395455",
"Z  c #38535F",
"A  c #3C5A5D",
"S  c #396443",
"D  c #3A6949",
"F  c #396843",
"G  c #3C714E",
"H  c #3F7B4C",
"J  c #3A5D6C",
"K  c #3F6261",
"L  c #405557",
"P  c #485B5C",
"I  c #5E595A",
"U  c #665D5E",
"Y  c #407D4E",
"T  c #737848",
"R  c #685F60",
"E  c #436B6B",
"W  c #5E636A",
"Q  c #417669",
"!  c #456F72",
"~  c #487675",
"^  c #6A6565",
"/  c #726968",
"(  c #7B7F7D",
")  c #41853C",
"_  c #41883E",
"`  c #6E8222",
"'  c #718423",
"]  c #758A23",
"[  c #788F23",
"{  c #778A29",
"}  c #7B9223",
"|  c #41844C",
" . c #438B4B",
".. c #46934A",
"X. c #479849",
"o. c #489E48",
"O. c #469646",
"+. c #448951",
"@. c #5A8053",
"#. c #489552",
"$. c #708A56",
"%. c #4BA747",
"&. c #49A148",
"*. c #478566",
"=. c #4D9572",
"-. c #829D25",
";. c #839A2B",
":. c #BA9B37",
">. c #86A325",
",. c #8AA826",
"<. c #92B227",
"1. c #98BA27",
"2. c #97BA28",
"3. c #9ABE29",
"4. c #94B429",
"5. c #9EC429",
"6. c #A0C729",
"7. c #A5CD2A",
"8. c #A7D02A",
"9. c #ABD42A",
"0. c #AED82D",
"q. c #B0DA2E",
"w. c #ADD630",
"e. c #AFD830",
"r. c #B3DC32",
"t. c #B7E035",
"y. c #B8E236",
"u. c #A1A05C",
"i. c #406E87",
"p. c #457689",
"a. c #487E93",
"s. c #467B91",
"d. c #537D92",
"f. c #4F9380",
"g. c #4A8295",
"h. c #518C91",
"j. c #7C9D83",
"k. c #56A485",
"l. c #5AA4AC",
"z. c #5FB3A1",
"x. c #5FAFB4",
"c. c #62B2AD",
"v. c #62B8AD",
"b. c #66BDBC",
"n. c #66B4B8",
"m. c #68C4B7",
"M. c #77C1B2",
"N. c #69C4C2",
"B. c #6DCAC3",
"V. c #72D5CD",
"C. c #938B88",
"Z. c #9DCDC5",
"A. c #83D6CE",
"S. c #94D5D0",
"D. c #A4DED6",
"F. c #A7E3DA",
"G. c #C9D0D0",
"H. c #EBE5DC",
"J. c #DAEBE2",
"K. c #F4EEE4",
"L. c #F8F2E9",
"P. c #F5F0E6",
/* pixels */
"9.9.9.8.8.9.9.9.8.8.9.9.9.9.5.7.9.9.9.0.r.t.0.9.0.9.8.8.9.9.9.9.9.8.8.9.9.8.8.6.7.9.9.0.y.r.9.9.9.0.",
"q.q.9.9.9.9.8.7.8.9.0.0.0.9.7.9.9.q.q.q.q.q.9.9.9.9.8.7.8.9.9.9.9.9.9.9.9.9.8.8.8.9.9.0.r.r.q.q.9.9.",
"y.r.9.9.9.7.6.6.8.8.0.e.q.0.9.0.q.r.t.r.0.9.9.8.9.9.8.6.9.8.8.9.9.9.9.9.9.9.0.9.9.9.8.9.q.t.r.9.0.q.",
"9.9.9.9.9.9.7.6.9.9.9.0.r.r.0.q.t.t.q.q.9.9.8.8.8.9.8.6.8.9.5.8.8.9.9.9.9.9.9.9.9.9.8.8.q.r.q.8.q.q.",
"8.9.9.9.8.8.8.7.8.8.9.9.0.t.0.0.r.r.0.9.9.9.9.8.9.9.8.7.9.9.6.8.9.9.9.9.q.q.9.9.9.9.9.9.9.9.9.9.q.q.",
"9.8.7.9.9.7.9.9.8.8.8.9.0.r.0.9.q.q.0.9.9.9.9.9.9.9.9.9.9.9.9.9.9.8.9.9.t.q.9.9.9.9.0.9.8.8.8.9.0.9.",
"9.9.8.7.7.7.9.9.9.7.7.9.0.9.8.9.q.9.8.9.9.9.9.9.9.q.q.9.9.9.8.9.9.9.9.9.q.t.q.q.9.9.q.q.9.9.9.9.9.9.",
"9.9.9.7.7.8.9.9.9.8.7.9.9.9.9.9.9.9.9.9.9.9.9.9.0.q.q.9.9.9.8.9.9.0.9.q.q.t.t.9.0.q.q.q.9.9.9.9.9.8.",
"9.9.9.9.9.9.9.9.0.9.9.9.8.9.9.9.7.9.9.9.9.9.7.9.9.r.0.9.q.r.0.9.8.9.9.9.9.0.q.9.0.r.9.8.9.8.9.9.9.9.",
"0.9.9.9.9.9.r.q.9.9.9.9.9.9.9.9.9.9.9.9.8.7.7.9.9.q.9.9.0.9.9.9.8.7.8.9.9.9.0.9.9.q.9.9.9.9.9.9.0.q.",
"9.0.9.9.0.0.t.t.9.9.9.9.8.7.9.9.9.7.5.9.5.7.9.9.9.9.9.9.7.9.9.9.8.7.8.9.9.9.9.9.9.9.8.9.9.9.9.9.q.q.",
"r.r.r.q.0.t.t.e.0.9.9.8.7.5.9.9.9.9.9.9.7.5.9.9.9.9.9.9.9.9.7.9.9.9.9.9.9.9.9.9.9.9.7.7.8.9.9.9.q.q.",
"q.r.r.q.q.r.e.9.9.9.9.9.8.8.8.9.9.9.8.9.9.9.9.9.9.9.9.9.9.8.9.9.q.0.9.9.9.9.9.9.9.8.7.8.8.9.9.9.9.9.",
"9.0.r.0.0.r.8.7.8.9.9.9.9.9.9.9.9.9.9.9.9.9.9.9.9.9.0.0.8.9.9.r.r.0.0.9.9.0.q.9.8.8.9.9.9.9.9.8.7.8.",
"9.0.0.9.9.8.8.8.9.9.9.9.9.9.9.9.0.9.9.0.0.9.0.q.r.0.0.t.0.8.9.9.t.t.0.9.9.q.r.0.9.9.9.9.9.9.9.9.7.6.",
"0.9.9.9.9.9.7.8.9.9.9.9.9.9.9.9.9.q.0.9.0.9.9.q.t.q.r.q.0.8.8.0.q.t.q.0.q.q.q.9.9.9.q.0.9.9.9.0.8.7.",
"0.9.9.8.8.9.7.7.9.9.q.r.r.0.9.7.0.r.r.9.9.9.0.0.r.t.r.9.9.8.8.9.q.q.q.9.r.q.7.7.7.q.r.r.q.9.q.9.9.9.",
"q.q.9.9.9.9.7.6.9.9.9.q.q.r.9.0.r.t.0.9.9.9.9.9.e.t.e.8.8.8.8.8.0.q.9.9.0.0.9.7.7.9.q.q.r.r.r.9.9.9.",
"t.q.9.8.8.9.8.7.9.7.9.9.r.r.0.0.t.t.0.9.9.9.8.9.9.e.9.8.8.8.7.8.9.9.9.9.9.9.9.7.8.9.9.q.q.r.r.9.q.q.",
"9.0.9.7.6.7.9.9.9.9.7.9.r.r.0.0.r.9.9.7.9.9.9.9.9.8.8.0.9.8.5.8.9.9.9.9.9.9.7.9.8.8.9.9.9.q.r.9.r.y.",
"9.9.8.8.9.8.8.9.9.9.9.8.9.9.0.0.0.9.9.8.8.9.9.9.8.8.9.0.9.7.8.9.9.r.q.9.8.8.8.9.9.7.9.9.8.9.9.9.0.q.",
"8.8.9.9.0.0.9.8.9.9.9.9.7.7.9.9.9.<.>.>.>.>.>.>.>.} 2.0.9.5.>.>.4.0.q.9.8.8.8.9.9.8.8.8.8.9.9.8.9.9.",
"9.9.9.0.q.9.9.9.9.9.9.9.9.9.7.9.7.f O O O + O + O O c y.0.} O O f 6.9.9.9.8.8.9.9.9.7.7.9.8.8.9.9.9.",
"9.9.9.9.q.q.0.0.q.q.9.9.9.9.9.9.7.p - N N N N B B N k x x T C.5 p 7.9.9.9.9.9.9.9.8.8.8.9.9.8.9.9.8.",
"0.9.9.8.9.t.q.0.r.q.9.8.8.8.9.9.6.s , i.a.g.g.d.g.g.K 3 4 $.L.^ p 6.9.9.9.9.q.9.9.8.9.9.9.8.9.9.8.6.",
"9.0.9.8.9.9.0.9.q.9.8.9.9.9.7.7.6.% b i.l.N.N.B.N.B.b.v.c.Z.L.^ s 3.9.9.8.9.9.r.r.9.9.9.8.9.9.9.8.7.",
"9.9.9.9.9.9.9.9.9.7.7.9.q.q.9.9.5.s , i.x.V.V.V.V.V.V.V.V.F.L.^ s 1.7.9.8.9.9.r.r.9.9.9.0.9.9.9.9.9.",
"8.9.9.9.9.9.8.9.9.7.6.9.q.r.q.9.5.p b i.x.V.V.V.V.V.V.V.V.F.L.R p 3.7.9.8.8.9.r.0.9.8.0.r.0.9.0.9.9.",
"9.9.9.9.8.7.7.7.7.9.9.9.e.r.r.e.6.p , i.x.V.V.V.V.V.V.V.V.F.L.R p 6.9.9.9.9.9.0.0.8.9.9.q.9.9.q.q.t.",
"9.9.9.9.8.5.7.8.9.7.7.7.w.r.r.r.7.p 3 i.x.V.V.V.V.V.V.V.V.F.L.R p 6.0.q.q.9.9.9.9.7.7.9.9.9.9.q.r.t.",
"9.q.r.q.8.5.6.8.9.7.6.9.0.0.e.r.7.p , i.x.V.B.V.V.V.V.B.B.D.L.R p 7.r.q.9.9.9.9.9.9.6.7.9.8.8.9.q.t.",
"q.q.9.9.8.8.9.9.9.9.7.9.9.9.9.9.7.p 3 i.x.c.K C C Z L V Z P U 1 d 0.q.q.8.8.8.9.9.9.7.6.8.8.9.9.0.q.",
"q.0.9.7.9.9.9.9.9.9.8.9.9.9.8.1.} % , i.l.x.A m m m 4     ; I ; % ;.3.9.6.7.8.9.9.8.7.6.8.9.9.9.9.9.",
"9.9.9.9.9.9.8.9.9.9.9.9.8.7.8.] X . b i.x.V.B.B.B.B.~     ^ H.U   X ` 7.5.7.9.8.8.9.9.9.7.7.8.9.9.9.",
"9.9.9.9.9.9.9.9.9.q.q.9.9.9.8.`     , i.x.V.V.V.V.V.~     / L.R     ` 9.7.7.8.7.7.9.9.9.9.9.8.7.8.9.",
"9.9.9.9.q.r.q.0.9.q.r.0.9.9.9.c   * 3 J h.z.b.b.b.N.!   . ^ J.I     ` 9.8.8.7.6.7.0.8.8.9.9.9.5.6.9.",
"9.9.9.9.9.9.q.r.8.8.8.9.9.9.9.` . e e - - n p.g.a.a.V     K A.A     ' 9.9.9.7.7.9.9.9.9.9.9.7.5.7.9.",
"9.9.8.9.q.9.q.0.8.9.9.8.9.9.9.` . t S w q w n n N N <     4 ! S 6   ' 9.9.9.9.9.9.9.q.q.9.9.9.7.8.8.",
"9.9.8.9.9.9.9.9.9.9.8.8.7.8.9.} # t D G H S = O * * O $ X * * y i & } 9.7.8.9.9.9.9.r.r.0.0.9.9.9.7.",
"9.9.8.9.9.9.9.9.8.7.7.8.8.9.9.5.-.g q G  .O._ _ ) S v :.T y u 8 h >.5.9.9.8.8.9.0.9.0.q.r.0.9.9.9.9.",
"9.9.7.9.8.7.7.9.8.8.8.9.9.9.9.9.6.p : G ..%.%.%.o.Y $.u.@.| %.6 a 6.0.0.9.9.9.0.q.9.9.0.t.0.0.q.9.9.",
"7.9.9.7.7.6.7.7.9.9.0.0.9.9.9.9.7.p : G ..%.%.%.o.Y Q p.Q +.&.6 p 7.0.q.0.9.0.r.0.9.9.0.q.0.0.y.0.8.",
"9.0.r.9.8.8.7.9.9.9.0.q.0.9.9.9.6.p : G ..%.%.%.o.Y =.b.v.k.Y > p 7.0.0.r.0.9.q.9.8.9.9.0.9.9.0.9.9.",
"9.0.e.r.0.e.9.9.9.0.q.t.0.9.9.9.7.p : G ..%.%.o.#.=.z.V.V.M.j.r p 6.0.0.q.0.9.q.9.9.9.9.9.8.8.9.9.9.",
"9.9.q.r.r.y.r.9.9.r.y.r.q.9.9.9.7.p : G #.%.%. .*.m.V.V.V.F.K.U p 5.9.9.9.9.9.9.9.9.8.8.9.9.8.9.9.7.",
"9.9.9.9.r.r.r.r.q.q.t.q.0.9.9.>.f O : G ..%.%. .*.m.V.V.V.F.L.R p 6.9.9.8.9.9.9.9.8.8.9.0.9.9.8.7.6.",
"9.9.9.9.0.e.r.r.9.q.9.9.9.7.,.x = = q | X.%.%. .*.m.V.V.V.S.G.^ j -.5.9.8.9.8.8.8.8.9.9.9.9.9.8.6.6.",
"9.9.9.9.9.8.r.q.9.9.8.9.7.<.s 6 D D H &.%.%.%.+.*.m.V.V.V.n.d.i.Z + ] 9.9.8.8.8.8.9.9.9.5.8.9.9.7.5.",
"9.9.9.9.9.9.0.0.0.9.9.8.8.<.% @ > 7 q 0 0 0 0 8 w E E E E Z b b , . ] r.9.9.9.6.7.9.9.9.7.9.9.9.8.7.",
"0.9.9.9.9.9.9.9.9.9.9.8.9.1.%                                       { r.0.9.9.6.6.8.9.9.9.9.9.0.9.7."
};
