/* XPM */
static char *result[] = {
/* columns rows colors chars-per-pixel */
"50 50 176 2 ",
"   c #ACD62A",
".  c #ABD52A",
"X  c #A7D02A",
"o  c #A8D12A",
"O  c #AAD42A",
"+  c #A5CE2A",
"@  c #A9D32A",
"#  c #A2C929",
"$  c #A4CC29",
"%  c #B4DD31",
"&  c #B6DF33",
"*  c #ADD72B",
"=  c #A9D22A",
"-  c #A6CF2A",
";  c #A8D22A",
":  c #A4CD2A",
">  c #A0C729",
",  c #B0DA2E",
"<  c #B9E236",
"1  c #B1DB2F",
"2  c #B2DC30",
"3  c #AFD92D",
"4  c #A6CE2A",
"5  c #AFD92E",
"6  c #AED82D",
"7  c #A7CF2A",
"8  c #AFD92F",
"9  c #B2DB30",
"0  c #A8D02A",
"q  c #A3CB2A",
"w  c #ACD52A",
"e  c #AAD32A",
"r  c #ADD72E",
"t  c #B6DF35",
"y  c #B4DD32",
"u  c #B7E035",
"i  c #A1C829",
"p  c #ADD72C",
"a  c #B1DB33",
"s  c #B0DA30",
"d  c #AED82C",
"f  c #B5DE33",
"g  c #B6E035",
"h  c #B2DC34",
"j  c #AED82E",
"k  c #A5CD2A",
"l  c #AAD32D",
"z  c #ADD62B",
"x  c #ACD62B",
"c  c #ABD42C",
"v  c #A3CA29",
"b  c #B4DE32",
"n  c #B5DE35",
"m  c #B2DC32",
"M  c #ABD42A",
"N  c #A7D12A",
"B  c #A8D12B",
"V  c #B1DB32",
"C  c #AFD82F",
"Z  c #B1DB30",
"A  c #B5DF34",
"S  c #B1DA2F",
"D  c #A2CA29",
"F  c #ACD62E",
"G  c #ACD62F",
"H  c #A8D22B",
"J  c #A6D02A",
"K  c #B2DC33",
"L  c #B7E034",
"P  c #B3DC30",
"I  c #A4CC2A",
"U  c #A3CB29",
"Y  c #ADD72D",
"T  c #A9D22B",
"R  c #AAD42C",
"E  c #A9D32B",
"W  c #AED72B",
"Q  c #B0D92E",
"!  c #B4DD34",
"~  c #B5DE34",
"^  c #B3DD31",
"/  c #ADD62A",
"(  c #A5CD29",
")  c #ADD62C",
"_  c #B0DA31",
"`  c #B4DE34",
"'  c #ADD62D",
"]  c #ACD62C",
"[  c #B2DB31",
"{  c #B1DA30",
"}  c #B5DE32",
"|  c #B1DB34",
" . c #A8D22C",
".. c #ADD62F",
"X. c #ACD52E",
"o. c #ACD52C",
"O. c #AAD42B",
"+. c #ACD52D",
"@. c #AAD32C",
"#. c #ABD52B",
"$. c #AFD82D",
"%. c #B5DF35",
"&. c #A2C829",
"*. c #AFD932",
"=. c #ABD42E",
"-. c #B1DA2E",
";. c #A9D22D",
":. c #ABD42B",
">. c #A8D12C",
",. c #A6CF2B",
"<. c #B0D931",
"1. c #ADD62E",
"2. c #B0DA2F",
"3. c #ADD730",
"4. c #B6DF34",
"5. c #B0D930",
"6. c #B0D92D",
"7. c #AFD82C",
"8. c #B2DB32",
"9. c #AFD930",
"0. c #B4DE35",
"q. c #B8E136",
"w. c #AFD82E",
"e. c #B6E034",
"r. c #AFD830",
"t. c #B1DB31",
"y. c #ABD52C",
"u. c #AED830",
"i. c #B3DC33",
"p. c #AED82F",
"a. c #ABD52E",
"s. c #B4DE33",
"d. c #A1C929",
"f. c #B3DD34",
"g. c #9FC629",
"h. c #A9D22C",
"j. c #ACD52B",
"k. c #A5CF2A",
"l. c #ACD62D",
"z. c #B3DC32",
"x. c #A7D02B",
"c. c #AAD32B",
"v. c #A4CB29",
"b. c #AED72F",
"n. c #B3DC31",
"m. c #A0C629",
"M. c #B2DC31",
"N. c #A1C729",
"B. c #AED730",
"V. c #B5DF33",
"C. c #B4DD33",
"Z. c #9FC529",
"A. c #B1DA31",
"S. c #B7E036",
"D. c #A5CC29",
"F. c #B2DB2F",
"G. c #AED72C",
"H. c #B3DD35",
"J. c #AAD42D",
"K. c #AED72D",
"L. c #B3DD33",
"P. c #B8E135",
"I. c #A4CB2A",
"U. c #A2CA2A",
"Y. c #AAD42E",
"T. c #ABD42F",
"R. c #A7D02C",
"E. c #B0DA33",
"W. c #A3CA2A",
"Q. c #ADD72F",
"!. c #AED72E",
"~. c #B2DB33",
"^. c #AED831",
"/. c #B8E236",
"(. c #B0D932",
"). c #B3DD32",
/* pixels */
"    . X o     O + @       O # $         % & *       = - O       O + @     ; : > $     , < 1         ",
"2 3   @ ; = X 4 + @ * 5 6 . 7 o   , 1 8 9 1 * O @ . 0 q @ . = . . ; = @ w O o 4 o   e r t y , *     ",
"u 9   . @ - i i + @ p a s *   * d f g h j   . o - . 4 > = @ k = w   ; X .     .     X l h g f z x * ",
"l c . ; ; O v # e . x d 9 b d , & n m 6 * M N - - . 4 > = 0 i k ;   . M     . o @   X B 6 m V B C & ",
"o ; @ ; ; @ 4 4 @ @ O   Z A 6 S g m 5     . ; o ; . X D = = $ - ; @ . * , d . = @   @ ; @ F G H j % ",
"  = - O @ + e O - + J . 8 K p 8 h 6                 @ - O       O - @ 3 L P           e + + X .     ",
"  . = k I + e . e k U O p Y T R j E @   @ = w   W P Q O . O N O . e . 6 ! ~ ^ d   / 2 S e e O   e N ",
"    . ( I N O     7 $ = . . ; ; e o =   @ o e . d A 2   3 ) X @ M     p _ ` A ' ] , [ {   . O   @ X ",
"      . .         w O - =     @ - e       O - @ p K s * } ^ . o N       x s |  ...u X.;   o X .     ",
"  O ; .     1 1     . @ ; = . . = 4 7   X k + = * j o.H X.'   O o ( - = . p j O.) 1 o.O   O O   , % ",
"d +.@.#.* 3 f b *     M X k O   . ( ( O U i - @   . = X X o O . = D k N O .     . O e e O .     1 & ",
"K ! f $., L %.V x   M X q &.@     M = - # # e w . X ; . . @ - O . O M O X @     @ - D v - e     * d ",
"8 m A $., t *.=.= M . @ X 4 o O   e ; = 7 X .   . @ O   @ ; = 5 -.    . @ O     @ + + 7 ; M . = ; ; ",
"  5 a d j a ;.+ - @   . w . N =   o H p x     * *   * p o o . y f d *     * W   @ J O     . e J + : ",
"  * p x :.>.,.X O . . N @   . .   . Y V 6     1 b d -.} p @ X <.n & ,     1 } d . M w     = o O k > ",
"      O = o : + .   x 1.'   e O   , 2.3.]     9 4.2 2 P d @ + F m g 2.* -.{ 5.c O   , 6.  @ @   o $ ",
"*   . X o   U v .   7.L 2 x X = * f 8.- e     9.0.q.P     @ + e 6 h w.d e.r.+ + o * } b * * *       ",
"} 1   O .   U i X O * 3 P % ] w.f ~ t.O . . o y.8 ! u.X X - + e * 6 O.T $.p = v 4   3 2.V y P *     ",
"} -.w = o @ 4 k X = O   Z A 6 S u i.p.e . . o O x u.a.N N - q =     @ ; . . = ( 4 e . d t.~ s.* d , ",
"    M v d.+ @     o X . s K d 8 f.6 e + @       . J ;     7 g.0           = - O @ - O     _ V * P < ",
"o o o X o @ ; @   O @ o h.=.j.p j * . @ ; =   e X k.;   = X X O d % 3 . ; J - O @ + O M o l.Y ; ) 1 ",
"X X o ] p   = ;     . o X N @ .   . .   = o O ; X X :.$.T =   . Y z.5 . o - - O O X o o X = @ X e   ",
". . x _ s   w w       . . M X ;   o o     O - = . . 1 e.$.    o - x.c.  . ; - O   M v.$ . o X .     ",
"    x X.u.P d d P 3 . = ; ; = O   e = ; ; ; = ; = . 3 9 s j   w.b.@ M     O @ . O o 7 o   o X . o ( ",
"    . X X.e.6.3 & Q e X - X e . . . = + - o . ; - . . #._ s   P n.O .   . .   d :.X O   . o o . 4 > ",
"    . X T d * * d c.N O . O N - - - - + = .   ; - . @ X #.*   W c.# 0 . X @ W b 9 .   O J @ .   o I ",
"= O   @ e   O e   - : M 3 S O.X + N ; ; ' j x O ; = = o 7 o   O 4 m.7 O - = p s.M.  e c b.c e   O ; ",
"- ; .   w M X X . ( v e 9 L Q O.- #.* * _ t.*   O X = M U (   N I N.X M X = * V 9.. N X.u 1.o x * * ",
"O = N M o D I - X o o X B.n V.S #.2 s.V 8 p   @ N e .   e e   N - o M   O .   p y.X @ x 3 x ] _ C.& ",
"  ] 1.x X Z.q - o X X o l.t.%.M.* } 4.A.6     ; - . d 1 1 3   @ @   3 , *       O o X =   O y.s C.S.",
"  9 u 3 X g.q N   D.# O   p V s * } b         ; J M F.< < y         % & G.        . v U   o X . s H.",
"t.u.=.T N 0 = O   X k M   x J.c   3 3   @ - v.7 @ o o.1 C.~ b 3 7.% 2 K.k + o . O X # # X = O   p j ",
"V F X X ; O .     @ o e O e o @   = @   @ k m.k @ o ; :.9.L.u j j P.2.X N.q N @ = X I I.+ o O       ",
"x       @ - e       O - + - O   . U v.    o > U.X O = - M 8 H.Y.=.P.b.I m.k . X o w . @ + + X .     ",
"  O ; . ] 3.]     , 1 :.@ = ; o o X X o O e q - e . = + X h.T.R.h.S ) o q + X q 4   @ ; @ @ o ( - o ",
"  @ X M 6 V 2.G.M 2.n.*   . o X X @ @ X @ c. .+.d / @ X X - + - ;     . N - : d.k   ; ;   . X > q X ",
"  w .   x p % [ x.x.T .     . . . N o . o h.E.` } d w . . = + @ .       . o + : N   . .   ; I m.4 . ",
"  O = .     , 5 @ = = ; ; @ . M o I I ; = O.8 L.%.^ 6.* -.w.= . . = M . @ = = = O   -.,   O o 4 X ; ",
"  = - O   .     . M = - k.X M @ k i i - e     8 f.u ^ 3 } P   . e - @ M X = .     * % % d *     = - ",
"  = - O O X O O X I v k o M   @ k i v O .     * 5 f.A V.-.d   ; o O .   M ; N .     d 1 & ,     . O ",
"@ = o = 7 W.X = o 4 k N O     O o q I = . . @ M x Q._ P d . @ ; @   6 j x O E 5 6 @ . Q g , * 1 ) @ ",
"+ = x N q m.q X       *           X + + e O - = . - o .   @ - e     s V d   p & <.+ O j h j 3 L b.+ ",
"O r _ ] @ o - X     d % -.. ; @   X X e . O - = . - I v.e . O .     p Q b !.h.~.^.+ O * 6 c.E 3 ) O ",
"  6 _ 8 5 , O.=   7.9 t Z . ; @   = O., d . o ] $.T I.m.X M     . e . d ^ !.T r.1.o @ O   o X . . e ",
"    * V %./.,     ^ q.0.s           , /.-.    P e.d 4 m.I o     O - @             . X N   o X . ; + ",
"      6 t.%.s.F.  t.` 2.p . = o o . d -.P 2 * P L d e X = l._ p . e . . ; O . = o o = O   O = o I i ",
"  . O w Y (.n y * p.r.x O o X X X @ .   { [ * 1 % d . O w 6 V 2.d     . o = @ - - X O M = M M N v Z.",
"  @ J O O x.*.V x T B . 4 # = . . N o   T H w * *   @ J O   * y b *     . ; - + o .   o N.0   . D.Z.",
"  M @ . . = Y j   O = ; X 7 M     X N   O e   o 4 o ; @ .     m ).* , 1 * O o q : ; . e 4 e     7 U.",
"                    O - =         X N         ( > I ;         t.V x % & d   O # # + O           ; + "
};
