/* XPM */
static char *result[] = {
/* columns rows colors chars-per-pixel */
"50 50 194 2 ",
"   c #1E1317",
".  c #1E1519",
"X  c #20151A",
"o  c #281619",
"O  c #221B1B",
"+  c #2A1918",
"@  c #2A2419",
"#  c #2D2A1A",
"$  c #312D1A",
"%  c #39221A",
"&  c #33341C",
"*  c #3C3C1B",
"=  c #2A1E22",
"-  c #222321",
";  c #242C20",
":  c #2F2721",
">  c #392822",
",  c #283824",
"<  c #29362C",
"1  c #2A3D28",
"2  c #27332A",
"3  c #30392D",
"4  c #46221E",
"5  c #50261F",
"6  c #47351F",
"7  c #613A1F",
"8  c #673423",
"9  c #743525",
"0  c #2C4427",
"q  c #2D4929",
"w  c #32582E",
"e  c #2E4636",
"r  c #344E39",
"t  c #34563B",
"y  c #366331",
"u  c #396D35",
"i  c #396D39",
"p  c #3E7435",
"a  c #44441C",
"s  c #474B1D",
"d  c #4A4F1F",
"f  c #4D541D",
"g  c #515A1E",
"h  c #42482A",
"j  c #554121",
"k  c #5A4720",
"l  c #4B5020",
"z  c #455724",
"x  c #5D4C35",
"c  c #63412B",
"v  c #7D4B22",
"b  c #605B21",
"n  c #725F21",
"m  c #6E5237",
"M  c #73543A",
"N  c #4A6326",
"B  c #5C6821",
"V  c #657421",
"C  c #677921",
"Z  c #6B7D22",
"A  c #6E7A2D",
"S  c #67653D",
"D  c #786B2B",
"F  c #303F54",
"G  c #3E424F",
"H  c #376145",
"J  c #3B6D4B",
"K  c #3D744F",
"L  c #3E794A",
"P  c #4F4342",
"I  c #584948",
"U  c #515147",
"Y  c #6A5B55",
"T  c #775D51",
"R  c #7A5F52",
"E  c #674D41",
"W  c #407E4D",
"Q  c #557D59",
"!  c #696247",
"~  c #7E6254",
"^  c #776E6E",
"/  c #8A3E28",
"(  c #9B5D25",
")  c #826729",
"_  c #AF6927",
"`  c #C07229",
"'  c #D47E2B",
"]  c #836757",
"[  c #8C6E4C",
"{  c #8C7C72",
"}  c #438C3E",
"|  c #6E8222",
" . c #718623",
".. c #748A24",
"X. c #788F23",
"o. c #778A29",
"O. c #7B9325",
"+. c #7F9729",
"@. c #42844C",
"#. c #438B4B",
"$. c #469842",
"%. c #46944A",
"&. c #489C49",
"*. c #479944",
"=. c #5A9157",
"-. c #568E55",
";. c #7C844C",
":. c #4BA647",
">. c #4AA348",
",. c #7AA15E",
"<. c #668560",
"1. c #839D28",
"2. c #86A325",
"3. c #8AA52A",
"4. c #8DAD27",
"5. c #93B427",
"6. c #98BA27",
"7. c #94B52A",
"8. c #9BBE29",
"9. c #97B927",
"0. c #EE8F31",
"q. c #EE9135",
"w. c #F0963D",
"e. c #E4B83A",
"r. c #9EC429",
"t. c #A0C729",
"y. c #A5CD2A",
"u. c #A9CF2E",
"i. c #A7D02A",
"p. c #ABD42A",
"a. c #AED82D",
"s. c #B0DA2E",
"d. c #ADD530",
"f. c #AFD830",
"g. c #B3DC32",
"h. c #B0D634",
"j. c #A3C631",
"k. c #B7E035",
"l. c #B8E236",
"z. c #BD8845",
"x. c #A68C4D",
"c. c #82926B",
"v. c #968578",
"b. c #969E75",
"n. c #87856C",
"m. c #99A176",
"M. c #ABA279",
"N. c #ED9A4A",
"B. c #F19B48",
"V. c #F19A46",
"C. c #EB9D52",
"Z. c #E79E58",
"A. c #EAA158",
"S. c #F2A45A",
"D. c #E4B859",
"F. c #DAB07E",
"G. c #E7AB75",
"H. c #F6B273",
"J. c #F8B87F",
"K. c #F2A965",
"L. c #7E9EB8",
"P. c #5697CA",
"I. c #679DC8",
"U. c #74A1C5",
"Y. c #A59991",
"T. c #B8A88A",
"R. c #86A3BA",
"E. c #96A9B7",
"W. c #B0A9A4",
"Q. c #BDB8B3",
"!. c #BAB4AF",
"~. c #D9B695",
"^. c #CAB18C",
"/. c #F9BB84",
"(. c #E4B996",
"). c #E7BA95",
"_. c #F6BF90",
"`. c #EABC8D",
"'. c #D1BEAE",
"]. c #C6BCB3",
"[. c #CDBBAC",
"{. c #EBC29C",
"}. c #FAC494",
"|. c #F3C49E",
" X c #FBC69B",
".X c #D6C2AD",
"XX c #DDC1AA",
"oX c #CDC0B2",
"OX c #E7C4A8",
"+X c #F6C6A0",
"@X c #FCCBA3",
"#X c #F4C9A4",
"$X c #E9DFD3",
"%X c #F0E6D9",
/* pixels */
"p.p.p.i.i.p.p.p.y.p.p.p.a.p.y.y.p.p.p.p.g.k.a.p.p.p.p.y.p.p.p.p.p.i.p.p.p.p.y.r.i.p.p.a.l.a.p.p.p.a.",
"s.s.p.p.p.p.i.y.i.i.p.a.a.p.i.i.p.a.s.s.s.s.a.p.p.p.i.i.p.p.p.p.p.p.p.p.p.p.i.i.i.p.p.a.k.g.s.a.p.p.",
"l.g.p.p.p.y.t.t.i.p.p.g.a.p.p.a.p.k.l.k.p.p.p.i.p.p.i.r.i.p.y.p.p.p.i.i.p.p.p.p.p.p.p.i.g.l.k.p.a.p.",
"p.p.p.p.p.p.y.t.p.p.p.a.g.k.a.a.k.k.s.a.p.p.p.i.i.p.i.r.p.i.t.y.p.p.p.p.p.p.p.p.p.p.i.p.a.g.g.i.a.k.",
"i.p.i.p.i.i.i.y.p.i.p.p.g.g.a.a.k.s.a.p.p.p.p.p.p.p.i.y.i.i.y.i.p.p.p.p.s.s.p.p.p.p.p.p.p.p.a.i.a.g.",
"p.i.i.p.p.y.p.p.i.y.i.p.f.g.a.a.k.a.p.p.p.a.p.p.p.p.p.p.p.p.p.p.p.p.p.p.k.s.p.p.p.p.a.p.i.i.i.p.p.p.",
"p.p.i.y.y.y.p.p.p.y.t.p.p.a.p.p.a.p.p.p.p.i.p.a.p.s.s.p.p.p.i.p.p.p.p.a.g.g.g.s.p.p.s.s.i.p.p.p.p.p.",
"p.p.p.y.y.i.p.p.p.i.y.p.p.p.p.i.p.i.i.p.p.i.p.p.a.g.s.p.p.p.i.p.p.p.p.a.s.k.g.a.p.s.s.s.p.p.p.p.p.p.",
"p.p.p.p.p.p.p.p.a.p.p.i.p.p.p.p.i.p.p.p.p.p.y.p.p.g.a.p.k.g.p.i.i.p.p.p.p.s.s.p.p.k.p.i.p.p.p.p.p.p.",
"a.p.p.p.p.p.s.g.p.p.p.p.i.p.p.p.i.i.i.p.i.y.i.p.p.s.i.p.p.a.p.p.i.y.i.p.p.p.p.p.a.s.p.p.p.p.p.p.a.s.",
"p.a.p.p.a.a.k.k.a.p.p.p.p.y.p.p.p.y.i.p.y.t.p.p.p.p.p.p.i.i.p.p.p.y.i.p.p.p.p.p.p.p.i.p.p.p.p.p.s.g.",
"g.g.g.s.a.k.k.f.p.p.p.i.t.t.p.p.p.p.i.i.t.t.p.p.p.p.p.p.p.p.i.p.p.p.p.p.p.p.p.p.p.i.t.y.i.p.p.p.a.a.",
"s.g.k.a.s.g.f.p.p.p.p.p.y.y.p.p.p.p.p.i.p.p.p.p.p.p.p.p.p.p.i.p.s.a.p.p.p.p.p.p.p.y.i.i.p.p.p.i.p.p.",
"p.s.s.a.a.g.i.i.i.p.i.8.6.6.5.r.p.p.p.p.p.p.p.p.p.p.a.a.p.i.p.g.s.s.a.p.p.p.s.p.p.i.p.p.p.p.p.i.i.i.",
"p.p.a.a.p.p.i.i.p.p.5.f * * * Z p.p.p.s.s.p.a.s.g.a.s.g.a.i.i.s.k.k.s.p.p.s.g.s.p.p.p.p.p.p.p.p.y.r.",
"p.a.p.p.p.i.y.5. . .Z ! Y Y Y S ..t.s.p.a.p.p.s.k.s.g.s.a.i.i.a.s.k.s.a.s.s.s.p.p.p.s.p.p.p.p.p.i.y.",
"p.p.p.i.p.p.r. .. = I T..X.X.X{ # 1.d.i.p.p.p.a.k.l.s.p.a.p.y.p.a.k.a.a.k.a.i.i.i.p.k.k.a.a.p.a.p.p.",
"k.s.p.p.p.p.C & . ^ ].$X%X%X%XoXv.S Z i.p.p.i.p.a.k.a.p.i.y.y.p.a.a.p.p.a.p.p.r.y.p.a.a.s.g.g.p.p.p.",
"s.s.p.i.i.p.| f l n.W.W.W.W.W.Y.v.Y S O.O.O.X.X.O.+.O.O.r.i.t.p.p.p.p.p.p.p.p.y.i.p.p.a.g.k.g.p.s.s.",
"p.a.p.y.t.y.i.p.p.B X X X X X . = v.v.X . . . . . . . # 2.i.r.i.p.p.p.p.p.p.y.p.i.i.p.p.p.s.g.p.s.l.",
"p.i.i.i.i.p.i.i.p.4... . . .X...o.! U e r t i i u u p u N f f g  .d.f.p.p.i.y.p.i.i.p.p.i.a.a.i.s.s.",
"p.i.p.p.a.p.p.i.p.p.p.p.i.i.i.r.+.l e K L #.>.:.:.:.:.*.w , , , z 3.3.2.1.7.y.p.p.i.i.i.i.p.p.i.p.p.",
"p.p.p.s.s.a.p.p.p.p.p.p.p.p.i. .# t J K %.>.:.:.:.:.:.:.*.$.$.$.p # @ @ @ C y.p.p.p.y.y.p.i.i.p.p.p.",
"a.p.p.p.a.g.a.a.g.a.p.p.p.i.i.| . t K K W #.#.#.#.#.&.:.:.:.:.:.$.y y y y N C 8.p.i.i.i.p.i.i.p.p.i.",
"p.p.p.i.p.k.s.s.g.s.p.i.i.i.p.| . e H H H H H H H H L } } } } } } } } } } q $ 4.p.i.p.a.p.y.p.p.i.t.",
"p.a.p.i.p.p.a.p.a.i.i.p.p.p.i.Z . . - = - - - - - @ ; ; @ ; ; ; ; : ; ; ; @ $ 7.s.p.p.p.i.p.p.p.i.y.",
"p.p.p.p.p.p.p.p.a.i.y.p.a.s.p.| X 8 v v E ] R ] ] ] ] ~ R T T D ) ) 6 @ z B Z j.g.p.p.i.a.p.p.p.p.p.",
"i.p.p.p.p.p.i.i.p.y.t.p.s.k.s. .O _ 0.0.G.).).).@X@X@X@X{.(.(.D.e.e.n s 6.p.a.g.s.p.i.p.k.a.p.a.p.p.",
"p.p.i.p.i.y.y.y.i.i.p.i.d.l.g. .+ _ N.G.).+X+X+X@X@X@X@X+X+X|.[ d j Z 4.y.p.a.a.p.i.p.a.a.p.p.s.g.k.",
"p.p.a.p.i.t.y.i.i.i.i.i.d.f.l.o.+ _ C.(.+XOX].].].#X@X@X@XXX!.I # f 3.s.p.p.p.p.p.i.i.p.p.p.p.s.g.k.",
"p.s.k.a.i.t.t.i.p.i.r.p.a.a.h.o.+ _ C.~.+X'.I.P.U.'.@X@X@XQ.P.F s y.g.g.a.p.p.p.p.p.r.y.p.p.p.p.s.g.",
"s.s.p.i.i.i.p.p.p.i.i.p.p.p.p.| + _ B.|.@X'.I.P.U.OX@X@X@XQ.P.F f a.s.a.y.p.p.p.p.i.r.y.y.p.p.p.a.a.",
"s.a.p.y.p.p.p.p.p.p.i.p.p.p.i.| + _ S.@X@X'.R.R.E.XX@X@X@X[.L.F k h.s.y.t.y.p.p.p.y.t.y.y.p.p.p.p.p.",
"a.p.p.p.p.i.i.p.p.p.p.p.i.y.p.| o _ S. X@X X(.~.(.#X@X@X@X|.~.I f h.a.y.r.y.p.y.p.p.p.p.y.y.i.p.p.p.",
"p.p.p.p.p.a.a.p.p.s.s.p.i.r.Z n ( ' S.{.+X_.S.Z.Z.S./. XH.Z.Z.x d u.a.y.t.y.p.y.y.p.p.i.p.p.i.y.i.p.",
"p.i.i.p.s.s.s.s.p.s.s.s.p.6.* 7 ` ` z.T.^.F.C.B.B.B.H. XS.V.N.c 6 1.t.p.p.y.y.r.y.p.p.p.p.p.i.t.t.p.",
"p.p.p.p.p.a.s.s.i.i.p.p.p.6.* + % % q Q Q c.`.}.}.}. X@X X}.}.m . $ X.p.p.i.y.y.p.a.a.p.p.p.y.r.y.p.",
"a.p.i.p.p.p.s.s.i.p.i.i.p.r. .s . 0 N #.#.-.b.~.@X@X/.K.K.J.|.;.q .  .p.p.p.i.p.p.p.s.s.p.p.i.i.i.i.",
"p.p.i.p.a.p.p.p.p.p.p.i.i.i.p.X.$ p } :.:.&.W m.).#XH.w.q.A.{.,.p & X.p.i.i.p.p.p.p.s.s.s.p.p.p.p.y.",
"p.p.i.p.p.i.p.p.i.y.t.y.i.p.p.r.2.z y :.:.:.&.=.c.{. X/.V.z.<.r f 2.r.p.p.i.p.p.p.p.s.s.k.s.p.p.p.p.",
"i.p.i.p.p.t.y.p.i.y.p.p.p.p.p.p.t.s 0 :.:.:.:.%.-.b.M.M.x.;.@.1 s y.a.a.a.p.p.a.a.p.p.a.k.s.a.s.p.p.",
"y.p.p.i.t.r.y.i.p.p.p.a.p.p.p.p.t.s 0 :.:.:.:.:.&.W W K L @.>.0 s y.a.g.a.p.p.k.s.i.p.a.s.a.a.k.a.y.",
"p.a.f.p.p.p.y.i.p.p.a.s.a.p.p.p.y.s 0 &.:.:.:.:.>.&.*.%.W @.>.0 s y.a.a.s.a.p.s.a.i.p.p.a.p.p.a.a.p.",
"p.a.g.f.a.a.p.p.a.a.s.k.a.p.p.p.y.s 1 #.%.%.*.%.%.%.%.%.W W %.1 s r.p.a.g.a.p.a.p.p.p.p.p.i.i.p.p.p.",
"p.p.a.g.g.l.g.p.a.s.k.g.s.p.p.p.y.s 2 W K K K K W K K K J J J 2 s r.p.p.p.p.p.p.p.p.i.i.p.p.i.p.p.y.",
"a.p.p.a.g.g.g.g.p.s.k.s.a.p.p.p.t.s > m M x 3 < < < < 3 x m M > s r.p.p.i.p.p.p.p.i.p.p.p.p.p.i.y.t.",
"p.p.p.p.p.g.k.s.a.s.p.p.p.p.p.i.8.a % / 9 8 6 a a a # o 9 / 8 7 V i.p.p.i.p.p.y.y.i.p.p.p.p.p.i.t.r.",
"p.i.i.p.p.i.g.s.p.p.i.p.y.t.p.p.j.a 4 ( 5 s 5.t.8.8.V o 9 8 o 1.i.p.p.a.p.i.i.y.p.p.p.i.r.p.p.p.y.r.",
"p.p.p.p.p.p.a.a.p.p.p.p.i.i.p.p.y.s + 5 g 1.t.i.y.i.C   4 k Z 8.g.p.s.s.a.p.p.t.y.p.p.p.y.p.p.p.p.y.",
"a.p.a.p.p.p.p.p.p.p.p.p.p.p.p.p.y.s     X.p.p.y.t.y.C     g p.a.g.p.g.k.a.p.p.y.t.y.p.p.p.p.p.p.p.y."
};
