/* XPM */
static char *result[] = {
/* columns rows colors chars-per-pixel */
"50 50 188 2 ",
"   c #1C1117",
".  c #1E1519",
"X  c #1F1A1C",
"o  c #221519",
"O  c #231B19",
"+  c #2A1A19",
"@  c #311E19",
"#  c #21201C",
"$  c #2B2519",
"%  c #322E1B",
"&  c #32241C",
"*  c #3B3C1B",
"=  c #262D26",
"-  c #2E2827",
";  c #312324",
":  c #283924",
">  c #2A3B29",
",  c #28362A",
"<  c #393835",
"1  c #41221E",
"2  c #51271F",
"3  c #51281F",
"4  c #54321D",
"5  c #683E1F",
"6  c #573D20",
"7  c #693B27",
"8  c #3F411C",
"9  c #2C4427",
"0  c #2E492D",
"q  c #314224",
"w  c #2E4635",
"e  c #33553B",
"r  c #356231",
"t  c #3D7939",
"y  c #3E632D",
"u  c #474B1D",
"i  c #44471D",
"p  c #4D541E",
"a  c #525B1E",
"s  c #59651F",
"d  c #4B5020",
"f  c #515920",
"g  c #4D403F",
"h  c #634637",
"j  c #614B23",
"k  c #43662B",
"l  c #576521",
"z  c #5C6822",
"x  c #626823",
"c  c #756A25",
"v  c #667621",
"b  c #6B7C23",
"n  c #6B7A27",
"m  c #61653B",
"M  c #303F54",
"N  c #355A40",
"B  c #3D734E",
"V  c #3F794E",
"C  c #3A6949",
"Z  c #544847",
"A  c #4E494B",
"S  c #6A5749",
"D  c #6A5C56",
"F  c #4B6344",
"G  c #526545",
"H  c #407C4E",
"J  c #5F7D4D",
"K  c #6A624A",
"L  c #716F59",
"P  c #797155",
"I  c #6B7142",
"U  c #786E67",
"Y  c #7F7674",
"T  c #86452D",
"R  c #854F22",
"E  c #895223",
"W  c #88673D",
"Q  c #AF6927",
"!  c #B86E28",
"~  c #BD7129",
"^  c #D37E2B",
"/  c #438C3E",
"(  c #6E8223",
")  c #718523",
"_  c #748828",
"`  c #7B9326",
"'  c #748134",
"]  c #42864C",
"[  c #448C49",
"{  c #469842",
"}  c #46934A",
"|  c #489E48",
" . c #489346",
".. c #50964F",
"X. c #5E855D",
"o. c #73804E",
"O. c #638753",
"+. c #4BA647",
"@. c #49A148",
"#. c #6C8E62",
"$. c #768C67",
"%. c #7B9968",
"&. c #829D25",
"*. c #80992A",
"=. c #A6842F",
"-. c #A4843C",
";. c #86A225",
":. c #89A625",
">. c #8DAB29",
",. c #8BA828",
"<. c #90AB2D",
"1. c #93B427",
"2. c #98BA27",
"3. c #99BD28",
"4. c #95B52B",
"5. c #C09B34",
"6. c #ED943C",
"7. c #EB8F34",
"8. c #9EC429",
"9. c #A0C729",
"0. c #A5CD2A",
"q. c #A9CF2E",
"w. c #A7D02A",
"e. c #ABD42A",
"r. c #AED82D",
"t. c #B0DA2E",
"y. c #ADD730",
"u. c #AFD830",
"i. c #B3DC32",
"p. c #B0D634",
"a. c #A3C631",
"s. c #B7E035",
"d. c #B8E236",
"f. c #809D5F",
"g. c #B88F51",
"h. c #8F9370",
"j. c #979B76",
"k. c #AF8B74",
"l. c #B79278",
"z. c #AEA47A",
"x. c #D5974D",
"c. c #EB9A4A",
"v. c #F19B48",
"b. c #EB9D52",
"n. c #F2A357",
"m. c #C29B7F",
"M. c #F5AD6A",
"N. c #F1A967",
"B. c #E3AC7C",
"V. c #F3B174",
"C. c #5697CA",
"Z. c #679DC8",
"A. c #74A1C5",
"S. c #9A9088",
"D. c #A49486",
"F. c #A99E91",
"G. c #B9AC86",
"H. c #BDAB99",
"J. c #8DA8BD",
"K. c #99ADBB",
"L. c #B5AEAA",
"P. c #B0A9A4",
"I. c #A2AFB9",
"U. c #BDB8B3",
"Y. c #A6A8AA",
"T. c #D1B890",
"R. c #C5B29E",
"E. c #E9B180",
"W. c #F6BB85",
"Q. c #ECBE9A",
"!. c #E5B794",
"~. c #D1BEAE",
"^. c #DCBEA6",
"/. c #CFBBA6",
"(. c #EFC298",
"). c #FAC293",
"_. c #F3C49D",
"`. c #FBC69A",
"'. c #FBC89D",
"]. c #DEC2AA",
"[. c #D6C2AD",
"{. c #D4C7B9",
"}. c #E9C4A6",
"|. c #FBCBA3",
" X c #F4C6A1",
".X c #DCD2C7",
"XX c #E7DBCD",
"oX c #EDE4D7",
/* pixels */
"e.e.e.w.w.e.e.e.w.w.e.e.r.e.0.0.e.e.r.e.t.s.r.e.e.r.w.w.e.e.e.e.e.w.e.e.e.e.0.9.0.e.e.r.d.t.r.e.e.e.",
"t.t.e.e.e.e.w.0.w.e.e.r.r.e.w.w.e.r.t.r.t.t.r.e.e.e.w.9.e.e.e.e.e.w.w.e.e.e.w.w.w.e.e.r.s.i.t.r.e.r.",
"d.i.e.e.e.0.9.9.w.w.r.u.r.e.e.r.r.i.d.i.r.e.e.e.w.e.w.9.e.w.w.w.e.e.e.w.e.e.e.e.e.e.e.e.t.d.s.e.e.r.",
"e.e.e.e.e.e.0.9.e.e.e.r.i.s.r.r.s.s.i.r.e.e.0.0.w.e.w.9.e.w.9.w.e.e.e.e.e.e.e.e.e.e.w.w.r.t.t.w.r.s.",
"w.e.w.e.w.w.w.0.w.e.e.e.i.i.r.t.s.i.r.r.e.e.e.e.w.e.w.0.w.e.0.w.w.e.e.e.t.r.e.e.e.e.e.e.e.e.e.e.t.t.",
"e.w.w.e.e.0.e.e.w.0.w.e.r.i.r.r.t.r.e.r.e.e.e.e.e.e.e.w.e.e.e.e.e.w.e.r.s.t.e.e.e.e.r.e.w.w.w.e.r.e.",
"e.e.w.0.0.0.e.e.e.0.0.e.r.r.e.e.r.w.e.e.e.e.e.e.r.t.r.e.e.e.w.e.e.e.e.r.s.s.t.r.e.e.t.t.e.e.e.e.e.e.",
"e.e.e.0.0.w.e.e.e.0.0.w.e.e.w.w.e.w.w.r.e.e.e.e.t.t.t.r.r.e.w.w.e.r.e.r.r.i.s.r.r.r.t.t.e.e.e.e.e.w.",
"e.e.e.e.e.r.e.e.e.e.e.w.e.e.e.e.w.e.e.e.e.e.w.w.r.t.r.r.t.t.r.e.w.e.e.e.e.t.t.e.t.s.e.w.e.e.w.e.e.r.",
"r.e.e.e.e.e.t.i.e.r.e.e.w.e.e.e.w.w.w.e.w.0.w.e.r.t.e.e.r.e.e.e.w.0.w.e.e.e.t.e.e.r.e.e.e.e.e.e.r.t.",
"e.r.e.e.e.r.s.s.r.e.e.e.w.0.e.e.e.0.w.e.0.9.w.e.r.e.e.w.w.e.e.e.e.0.w.e.e.e.e.e.e.e.e.e.e.e.e.r.r.s.",
"i.i.i.t.r.s.s.u.e.e.e.w.0.9.e.e.e.e.w.0.0.9.e.e.e.w.w.e.e.w.w.e.e.e.e.e.w.e.e.e.e.w.9.0.w.e.e.e.r.r.",
"t.i.s.r.t.i.u.r.e.e.e.w.w.w.e.e.e.e.e.w.w.w.e.e.e.e.e.r.w.w.e.r.t.e.e.e.w.e.e.e.w.0.0.w.e.e.e.w.e.w.",
"e.t.t.r.r.i.e.8.1.2.2.2.2.8.9.e.e.e.e.e.r.e.e.r.r.e.e.r.w.e.e.t.s.r.e.e.e.r.r.r.e.w.e.e.e.e.e.w.w.0.",
"e.e.r.r.e.w.w.;.8 * * * * u 1.e.r.e.e.r.r.e.r.t.i.r.t.i.e.w.e.r.s.s.t.e.e.t.i.r.e.e.e.e.e.e.w.e.0.9.",
"e.r.e.e.e.w.` s O Z U D D K n :.e.r.t.e.r.e.r.t.s.t.i.t.r.e.w.e.t.s.t.r.t.t.t.e.e.r.r.t.e.e.e.e.w.0.",
"e.e.e.w.w.e.a O # S.XX{.~.P.6 l w.t.t.w.e.e.e.t.i.d.i.e.r.e.0.e.t.i.r.e.s.t.0.0.e.e.i.i.e.t.e.e.e.r.",
"i.r.e.e.e.e.:.` ` I Y .XoXXXP.P a 1.t.e.e.e.e.e.t.i.y.w.w.0.0.e.e.t.e.e.r.r.e.9.0.e.t.t.i.i.t.t.r.e.",
"s.r.e.e.w.e.0.0.e.) K F.P.L.{.F.S ' >.e.e.e.e.e.e.y.e.w.w.w.9.e.e.e.e.e.e.e.e.0.0.e.e.t.t.s.t.r.r.r.",
"e.r.e.0.8.0.e.e.r.w.;., X 3 {.XXR.g p 0.w.e.e.e.e.e.w.r.e.w.8.w.e.e.e.e.e.e.0.e.e.w.e.e.t.t.t.e.t.d.",
"e.w.w.w.e.e.e.e.e.e.8.` ) _ L S./.j.P d f l a a a a s s 1.w.w.w.r.i.t.e.w.w.0.e.w.0.e.e.w.r.e.e.r.t.",
"e.w.e.e.r.e.e.w.e.r.e.w.e.2.f K D.D.U = = = : : : : : q ( ;.;.;.:.<.,.;.;.1.w.e.e.w.w.w.w.w.e.w.e.e.",
"e.e.e.r.t.e.e.e.e.e.e.e.e.0.3.n ; ; < C C B { { / { / / 9 $ $ $ $ $ $ $ $ v 0.e.e.e.0.0.e.w.w.e.e.e.",
"r.e.e.e.t.t.r.r.i.r.e.w.e.e.e.)   , N C ] } @.+.+.+.+.| t r r r r r r r r k n 3.e.w.w.w.e.e.w.e.e.w.",
"e.e.e.e.e.i.r.r.i.t.e.0.0.e.e.b   e B B [ |  . .+.@.@.+.+.+.+.+.+.+.+.| / 0 % >.e.w.e.e.e.w.w.e.w.9.",
"e.r.e.w.e.e.r.r.r.e.e.e.e.e.e.b . N B B H H H H V V } +.+.+.+.+.+.+.+. .9 # % 4.t.e.e.e.w.e.e.e.w.0.",
"e.e.e.e.e.e.e.e.e.0.0.e.r.t.e.)   , w w w w M < w w e r r r r r r r r y s s ( 9.i.e.e.e.r.e.e.e.e.e.",
"w.e.e.e.e.e.w.w.e.0.0.e.t.i.t.)   + @ @ ; ; ; ; - ; & ; ; ; ; & & & O * 1.w.r.t.r.e.w.r.s.r.e.r.e.e.",
"e.e.w.e.w.0.0.0.e.0.e.0.i.i.i._ o E ! ! g.k.k.l.G.G.D.G.l.k.k.g.5.5.j * 2.e.e.r.r.w.e.e.r.e.e.t.i.i.",
"e.e.r.e.w.9.0.w.0.e.0.e.r.i.i._ + Q v.b.E.Q.Q. X).'.'.|._.Q.(.g.=.=.c n 9.e.e.r.e.w.0.e.e.e.e.t.i.d.",
"e.t.s.r.w.9.9.w.e.0.9.e.e.r.i._ o Q b.!. X X|. X X X|.|.|.|.'.S   o ` t.r.e.e.e.e.e.9.0.e.e.e.e.t.i.",
"t.t.e.w.w.w.e.e.e.0.0.e.r.e.r.b o Q c.!. X].K.J.I.}.|.|.|.~.J.N * *.3.r.0.w.e.e.e.e.9.9.w.e.e.e.e.t.",
"t.r.w.w.e.e.e.e.e.e.e.e.e.e.w.( + Q b.!.'.~.Z.C.A.].|.|.|.U.C.M p p.i.0.9.0.w.e.e.w.0.0.0.w.e.e.e.e.",
"r.e.e.e.e.w.e.e.e.e.e.w.0.w.e.( o Q n.'.|.~.Z.C.A.].|.|.|.U.C.M u p.r.0.8.0.e.w.w.e.e.e.0.0.w.e.e.e.",
"e.e.e.e.r.e.r.r.e.t.t.e.w.8.b 8 + Q n.'.|.}.P.Y.L.}.|.|.'.^.Y.A d w.r.w.0.0.w.0.w.e.e.w.e.e.e.0.0.w.",
"e.e.w.e.r.t.r.t.e.r.i.r.e.2.* @ 4 ~ n._.|._.E.B.E.W.`.|.).E.B.h u 9.e.e.w.w.0.9.0.e.w.e.e.e.w.8.0.w.",
"e.e.e.e.e.r.t.t.w.w.w.e.e.2.* 5 ^ 7.c.!._.W.v.6.6.v.M.`.n.6.6.7 u 0.e.e.e.e.0.0.e.e.e.r.e.e.0.9.w.e.",
"e.e.w.e.r.e.t.r.w.e.e.w.e.9.) c R R W h.j.z.N.M.M.M.W.'.V.M.N.h % x >.e.e.e.e.e.e.r.r.t.e.e.e.0.w.w.",
"e.w.w.e.e.e.e.e.e.e.w.w.w.w.w.)   # 0 V V #.T.}.'.|.`.`.`.`.'.K # . ) e.w.w.e.e.e.e.t.s.r.r.e.e.w.w.",
"r.e.w.e.e.w.e.e.w.0.0.0.w.e.e.( . r [ { | ..#.G.|.|.V.v.v.M.|.f.r X ( e.e.w.w.e.e.r.r.t.t.r.e.e.e.e.",
"e.e.0.e.0.9.0.e.w.w.e.e.e.e.e.:.s k t +.+.| [ %.G._.V.n.6.x.z.J k s :.r.e.e.e.t.r.e.e.r.s.r.e.t.e.e.",
"0.e.e.0.0.9.0.e.e.e.e.r.e.e.e.e.0.u 9 +.+.+.+.[ X.T._.(.b.-.B , u 0.t.t.t.e.e.s.r.w.e.e.i.r.r.d.r.0.",
"e.r.u.r.e.e.0.0.e.e.r.t.r.e.e.e.0.u 9 @.+.+.+.@...#.$.$.o.O. .> u 0.r.t.i.r.e.t.r.w.e.e.e.e.e.r.e.e.",
"e.r.i.r.r.r.e.e.e.r.t.s.r.e.e.e.0.u 9 +.+.+.+.+.@.} ] ] B [ @.9 u 8.e.t.t.r.e.e.e.e.e.e.e.e.w.e.e.e.",
"e.e.t.i.i.d.t.r.r.t.d.i.t.e.e.e.9.u 9 @.+.+.+.+.+.+.+.@.] ] @.9 u 8.e.e.e.e.e.e.e.e.w.e.e.e.w.e.e.0.",
"e.e.e.e.i.i.i.i.r.i.i.t.e.e.e.e.8.u > ] [ ] ] ] ] ] ] ] B H ] : u 8.e.e.w.e.e.e.e.w.w.e.r.e.w.e.w.8.",
"e.e.e.e.e.t.s.i.e.r.e.e.e.w.e.e.8.u , G F F N e N N N N G G G ; u 0.e.e.w.e.e.w.w.w.e.e.w.e.e.w.0.8.",
"e.e.e.e.e.e.t.t.e.e.w.e.w.9.e.e.0.u 1 T T 7 ; X X X X - 7 T T 1 u 0.e.r.e.w.w.0.w.e.e.w.9.e.e.e.0.8.",
"e.e.e.e.e.e.e.t.r.e.e.e.w.0.e.e.0.u + 2 2 6 v v v v i o 1 2 2 x ` e.t.t.r.e.e.0.0.w.e.e.w.e.r.e.e.0.",
"e.e.e.e.e.r.e.e.e.e.e.w.e.e.e.e.0.u       i 8.0.9.9.v         &.i.e.t.s.r.e.e.9.0.0.w.e.e.e.e.e.w.0."
};
