/* XPM */
static char *result[] = {
/* columns rows colors chars-per-pixel */
"50 50 188 2 ",
"   c #1C1217",
".  c #1D1519",
"X  c #211518",
"o  c #291918",
"O  c #231D1B",
"+  c #26241B",
"@  c #2A2519",
"#  c #2B291C",
"$  c #362E1B",
"%  c #36341A",
"&  c #393A1C",
"*  c #252B24",
"=  c #222321",
"-  c #293A24",
";  c #273129",
":  c #273325",
">  c #2B3E31",
",  c #33292D",
"<  c #492C1C",
"1  c #54321D",
"2  c #443A3D",
"3  c #4C3E3D",
"4  c #643E24",
"5  c #3F421C",
"6  c #2C4427",
"7  c #2E4A2A",
"8  c #365A2D",
"9  c #2F4736",
"0  c #314E37",
"q  c #305032",
"w  c #355839",
"e  c #356232",
"r  c #3E7636",
"t  c #3E7D3A",
"y  c #3A632F",
"u  c #464B1D",
"i  c #464A1D",
"p  c #4C521D",
"a  c #525B1F",
"s  c #5A661F",
"d  c #484C20",
"f  c #414E25",
"g  c #445824",
"h  c #555E21",
"j  c #534B37",
"k  c #484E39",
"l  c #6C4120",
"z  c #675024",
"x  c #705826",
"c  c #664837",
"v  c #715229",
"b  c #40622B",
"n  c #5E6B20",
"m  c #576822",
"M  c #5F7223",
"N  c #616E22",
"B  c #727723",
"V  c #636735",
"C  c #6E6826",
"Z  c #303F54",
"A  c #374152",
"S  c #3A6A49",
"D  c #396748",
"F  c #3D734F",
"G  c #3E794E",
"H  c #3F7F46",
"J  c #594E4A",
"K  c #675047",
"L  c #6A5248",
"P  c #71584C",
"I  c #70574C",
"U  c #63595A",
"Y  c #417A4E",
"T  c #417551",
"R  c #70615A",
"E  c #757A54",
"W  c #8B5323",
"Q  c #AF6927",
"!  c #D07C2B",
"~  c #CF7B2B",
"^  c #97774E",
"/  c #8E7F6E",
"(  c #877E7D",
")  c #438D3E",
"_  c #6E8222",
"`  c #718524",
"'  c #748A23",
"]  c #778A29",
"[  c #778A29",
"{  c #7B9424",
"}  c #7E9824",
"|  c #42854C",
" . c #448D4B",
".. c #469842",
"X. c #469549",
"o. c #479949",
"O. c #489B49",
"+. c #459341",
"@. c #5B8E58",
"#. c #61805D",
"$. c #60925A",
"%. c #4BA647",
"&. c #4AA248",
"*. c #6D8964",
"=. c #829D25",
"-. c #85A125",
";. c #89A726",
":. c #8DAC26",
">. c #93B427",
",. c #97BA28",
"<. c #9BBF29",
"1. c #96B928",
"2. c #EE8E2F",
"3. c #EE8F30",
"4. c #EE9339",
"5. c #F0973E",
"6. c #9EC429",
"7. c #A0C729",
"8. c #A5CD2A",
"9. c #A9CF2E",
"0. c #A7D02A",
"q. c #ABD42A",
"w. c #AED82D",
"e. c #B0DA2E",
"r. c #AED730",
"t. c #AFD830",
"y. c #B3DC32",
"u. c #A7CA32",
"i. c #B7E035",
"p. c #B8E236",
"a. c #F5C73D",
"s. c #878540",
"d. c #928D7E",
"f. c #8E9770",
"g. c #90A66E",
"h. c #A3A57B",
"j. c #BAA97F",
"k. c #B48F4D",
"l. c #C88E48",
"z. c #ED9946",
"x. c #EB9D52",
"c. c #E49F5F",
"v. c #F19943",
"b. c #EFA257",
"n. c #F3A357",
"m. c #E9A566",
"M. c #F3AB69",
"N. c #F6B171",
"B. c #F7B478",
"V. c #E6A870",
"C. c #EFC15B",
"Z. c #739CBC",
"A. c #5897C9",
"S. c #649CC9",
"D. c #759FC0",
"F. c #6FA0C6",
"G. c #78A3C4",
"H. c #AA9D91",
"J. c #B9AB92",
"K. c #88A5BC",
"L. c #BDB8B3",
"P. c #C1AE9A",
"I. c #CBAF99",
"U. c #CFB29C",
"Y. c #D7B798",
"T. c #CBAC88",
"R. c #EAB786",
"E. c #F9BE8A",
"W. c #F7BB85",
"Q. c #E3B693",
"!. c #ECBE99",
"~. c #CBBCAE",
"^. c #C7B8AC",
"/. c #D2BEAD",
"(. c #D9BFAA",
"). c #C1B9B2",
"_. c #E9C39A",
"`. c #F2C49D",
"'. c #FAC495",
"]. c #DEC2AA",
"[. c #EDC4A3",
"{. c #E4C3A9",
"}. c #F4C6A1",
"|. c #FBCBA3",
" X c #F3C8A5",
".X c #D4CDC6",
"XX c #DED2C4",
"oX c #EADDCE",
/* pixels */
"q.q.q.0.0.q.q.q.8.q.q.q.w.q.6.8.q.q.q.q.i.i.q.q.q.q.0.0.q.q.q.q.q.0.q.q.q.q.0.7.8.q.q.w.p.e.q.q.q.w.",
"e.e.q.q.q.q.0.8.0.0.q.w.w.q.q.q.q.e.e.e.e.e.w.q.q.q.0.8.q.q.q.q.q.0.0.q.q.q.0.0.0.q.q.w.i.y.e.q.w.q.",
"p.y.q.q.q.8.7.7.0.q.q.y.e.w.q.w.e.y.i.e.q.q.q.0.q.q.0.7.q.0.0.0.q.q.q.q.q.q.q.q.q.q.0.q.y.i.i.q.q.q.",
"q.q.q.q.q.q.8.7.q.q.q.w.e.y.w.e.i.i.e.e.q.q.0.0.0.q.0.7.0.0.7.0.q.q.q.q.q.q.q.q.q.q.0.0.e.e.e.0.e.i.",
"0.q.q.0.0.0.0.8.0.0.q.q.e.i.w.w.i.e.e.q.w.q.q.q.0.q.0.8.0.q.8.0.q.q.q.q.e.w.q.q.q.q.q.q.q.q.q.q.w.i.",
"q.0.0.q.q.8.q.q.0.0.0.q.w.y.q.q.i.w.q.q.w.q.q.q.q.q.q.q.q.q.q.q.q.0.q.q.i.e.q.q.q.q.w.q.0.0.0.q.q.q.",
"q.q.0.8.8.8.q.q.q.8.8.q.w.w.q.q.w.q.0.q.q.0.q.q.q.e.e.q.q.q.0.q.q.q.q.q.i.i.i.q.q.q.e.e.q.q.q.q.q.q.",
"q.q.q.8.8.0.q.q.q.0.8.0.q.q.0.q.q.0.0.q.q.q.q.q.q.i.e.q.q.q.0.q.q.w.q.q.e.i.i.q.w.e.e.e.q.q.q.q.q.0.",
"q.w.q.q.q.q.q.q.q.q.q.0.q.q.q.q.0.q.q.q.q.q.0.q.w.e.w.q.e.e.q.q.0.q.q.q.q.w.e.q.q.i.q.0.q.q.q.q.q.q.",
"q.q.q.q.q.q.y.y.w.q.q.q.0.q.q.q.0.0.0.q.q.8.7.q.w.e.q.q.w.w.q.q.0.8.0.q.q.q.w.q.q.e.q.q.q.q.q.q.w.e.",
"q.q.q.q.w.w.y.i.q.q.q.q.0.8.q.q.q.0.0.0.7.7.q.q.q.q.q.0.8.q.q.q.q.8.0.q.q.q.q.q.q.q.q.q.q.q.q.q.e.i.",
"y.i.i.w.w.i.i.t.w.q.q.q.8.6.q.q.q.q.0.0.8.7.q.q.q.q.q.q.q.q.q.q.q.q.q.q.q.q.q.q.q.0.8.7.0.q.q.q.w.w.",
"e.e.i.w.e.i.t.r.q.q.q.q.0.0.0.q.q.q.0.q.q.q.q.q.q.q.q.q.q.q.8.q.e.q.q.q.q.q.w.q.q.8.8.0.q.q.q.0.q.q.",
"q.e.e.w.w.e.0.8.0.q.q.q.q.q.q.q.q.q.0.q.q.q.q.q.q.q.w.q.8.q.q.e.y.w.w.q.q.q.w.q.q.0.q.q.q.q.q.0.0.8.",
"q.q.w.w.q.q.0.0.q.q.q.q.q.q.q.q.q.q.q.e.e.q.q.e.i.w.w.i.q.q.q.w.i.i.e.w.q.e.i.q.q.q.q.q.q.q.q.q.8.6.",
"q.w.q.q.q.0.8.8.q.q.q.q.q.q.q.q.q.e.e.w.e.q.q.e.i.e.y.y.w.q.8.w.e.i.e.q.e.e.e.q.q.q.e.e.q.q.q.q.0.8.",
"q.q.q.0.q.q.7.8.q.q.e.y.e.q.0.0.w.i.e.q.q.q.q.w.i.i.y.q.q.q.8.q.w.y.q.w.i.w.8.0.0.q.i.i.q.e.q.q.e.q.",
"p.e.q.q.q.q.8.7.0.q.w.e.y.y.w.w.i.i.w.q.q.q.q.q.t.y.t.0.0.0.8.q.w.w.q.q.e.q.0.8.8.q.w.w.y.e.i.q.q.q.",
"i.e.q.q.q.q.8.7.0.q.q.q.e.y.r.y.i.y.w.q.q.q.q.q.q.t.q.0.0.0.8.0.q.w.q.q.q.q.q.8.0.q.q.q.e.p.i.q.w.e.",
"q.q.q.7.7.8.q.q.q.0.0.q.y.y.r.t.y.q.q.8.q.q.q.q.q.q.0.w.q.0.6.0.q.q.q.q.q.q.0.q.q.q.q.q.q.e.e.q.e.p.",
"q.0.0.0.q.q.8.q.q.q.1.n h h h h h a _ 0.0.q.q.q.0.q.q.q.q.0.0.q.q.i.e.q.0.0.0.q.0.0.q.q.0.q.q.q.w.e.",
"0.0.0.q.q.q.q.6.;.;.] j 3 3 3 3 3 j V -.=.=.-.-.} } -.;.6.0.q.q.q.e.w.q.0.8.0.q.q.0.0.0.0.q.q.0.q.q.",
"q.q.q.e.y.q.w.-.% * j H.P.P.P.J.J.P.d.@ @ @ @ @ @ @ @ % ;.q.q.q.0.0.q.q.q.0.0.q.q.q.8.8.q.q.0.q.q.q.",
"q.q.q.e.r.y.{ d X U H.].oXoXoXJ.R R J 9 9 9 8 e e e e y m n n n ' 0.q.q.q.q.q.q.q.0.8.0.q.0.0.q.q.0.",
"w.q.q.q.q.e.N & % d..X.X.X.X.X(   O > F Y | &.%.%.%.%...7 + * : g ;.>.<.0.q.q.e.q.0.q.q.q.0.0.q.0.7.",
"w.q.q.0.q.q.<.>.1.V 2 2 2 2 2 , . 9 D F  .&.%.%.%.%.%.&...) ) ) r & % p <.0.q.y.y.q.q.q.0.q.q.q.0.8.",
"q.q.q.q.q.q.q.q.q.{ s n M N N i . D F F |  . . .X.X.o.%.%.%.%.%.) e e y N ;.q.i.y.q.q.q.w.q.q.q.q.q.",
"0.0.q.q.q.q.0.0.q.8.7.q.e.p.e.`   9 S S S S S S S S H ....) &.) ......b : n 7.w.t.q.0.w.y.w.q.q.q.w.",
"q.q.0.q.q.7.8.0.8.q.0.0.r.y.y.[   = * * ; * * * * * : - 6 - - - - - - 7 r y a 1.q.8.q.q.q.q.w.y.e.i.",
"q.q.w.q.0.7.8.0.q.0.0.0.r.y.y.[ X 1 l 4 c L L L I I I I K K K z x x $ + e - $ ;.q.q.8.q.q.q.q.y.e.i.",
"q.e.p.e.0.7.7.0.q.8.7.q.q.w.y.[ o Q 3.3.V.Q.Q.`.|.|.|.|.!.Q.Q.C.a.a.x   . X % :.q.q.7.8.q.q.q.q.e.i.",
"y.w.q.0.0.0.0.q.w.0.8.q.q.q.r.B o Q z.V.R.}.`. X|.|.|.|.`.`.`.^ z x B { ' ' } 7.q.0.8.7.8.q.q.q.q.e.",
"y.w.0.0.0.q.q.q.q.q.q.q.q.0.0._ o Q x.Q.!. X~.~./. X|.|.|.[.^.J @ d =.9.6.8.0.q.q.0.8.8.8.0.q.q.q.q.",
"q.q.q.q.0.0.q.q.q.q.q.0.8.0.q._ o Q x.Q.`./.D.A.G.{.|.|.|.).A.Z d u.9.8.6.8.q.0.0.q.q.q.8.8.0.q.q.q.",
"q.q.q.q.w.e.w.q.q.e.e.w.0.0.0._ o Q n.!.|./.S.A.G.].|.|.|.).A.Z u 9.w.0.8.8.0.8.0.q.q.0.q.q.q.8.8.0.",
"q.q.0.q.w.e.e.w.q.e.y.q.q.0.>.s o Q n.|.|.(.K.D.K.{.|.|.|.^.Z.Z u 8.q.q.0.0.8.6.8.q.0.q.q.q.0.6.8.0.",
"q.q.q.q.q.e.y.e.0.0.q.q.q.<.p o o Q n.|.|.`.U.U.(.}.|.|.|.[.I.J u 8.q.q.q.0.0.8.q.w.q.q.q.q.8.6.0.q.",
"q.q.0.q.q.q.w.w.0.q.0.0.q.1.& < W ! b.!.`.'.m.m.m.M.W.|.B.M.c.4 u 7.q.q.q.q.0.q.q.q.e.e.q.q.0.0.0.0.",
"q.q.0.q.q.q.w.q.q.q.q.0.0.>.p x ! ! l.T.Y.B.z.5.5.5.N.'.n.5.4.4 < :.6.q.0.q.q.q.q.q.e.i.w.e.q.q.q.8.",
"q.q.0.q.q.0.q.q.0.8.7.0.0.8.>.B < < j #.@.f.R.W.W.E.'.'.'.W.W.K + & } q.q.0.0.q.q.q.q.e.i.e.q.q.q.q.",
"q.0.0.0.0.7.0.0.0.0.q.q.q.q.q.' . - e |  .$.h.Y.|.|.E.N.N.'.'.#.6 . ` w.q.q.q.w.w.q.q.w.y.e.q.e.q.q.",
"8.0.w.0.8.7.8.0.q.q.q.q.q.q.q.' @ r &.%.%.o.G h.}.|.N.3.2.n.`.g.r @ ] w.w.q.w.i.e.q.q.w.i.w.e.i.w.8.",
"q.w.e.r.0.0.0.0.q.q.q.i.q.q.q.1.{ g y %.%.%.o.$.f.!.E.N.5.l.*.k 8 } 6.w.y.w.q.e.q.0.q.q.w.q.q.w.q.q.",
"q.w.e.e.e.e.q.q.q.q.e.p.e.q.0.q.8.i 6 %.%.%.%.X.@.H.J.J.k.=.| - u 7.q.w.y.w.q.q.q.q.q.q.q.0.0.q.q.q.",
"w.q.q.e.y.p.e.w.q.y.p.y.e.q.q.q.7.u 6 &.%.%.%.%.&.G G F T | %.6 u 6.q.q.q.q.q.q.q.q.8.q.q.q.0.q.q.8.",
"q.q.q.e.e.y.y.y.w.y.y.e.q.q.q.q.7.i 6 &.%.%.%.%.&...X.X.G | %.6 u 7.q.q.0.q.q.q.q.0.q.q.q.q.0.q.8.7.",
"q.q.q.q.w.e.y.y.w.w.q.q.q.0.q.<.{ 8 q o.o.o.o.o.o.o.o.X.Y | X.q u =.6.q.q.q.q.8.8.0.q.q.q.q.q.0.8.6.",
"q.q.q.q.q.q.e.e.q.q.0.q.0.7.q.' # w S G G G G G G G G F F F G S w # ' q.q.0.8.8.q.q.q.q.6.0.q.q.8.6.",
"q.q.q.q.q.q.w.w.q.q.q.q.0.0.q._ X : - > > > > > > > > > > > > > ; . ' y.q.q.0.8.8.q.q.q.8.q.q.q.q.8.",
"q.q.w.q.q.q.q.q.q.q.q.q.q.q.q._                                     ] y.w.q.q.7.7.0.q.q.q.q.q.q.0.8."
};
