/* XPM */
static char *result[] = {
/* columns rows colors chars-per-pixel */
"50 50 198 2 ",
"   c #1C1117",
".  c #23141A",
"X  c #241C19",
"o  c #2B151D",
"O  c #2B261A",
"+  c #302C1A",
"@  c #36341A",
"#  c #3C3C1B",
"$  c #371622",
"%  c #382C2E",
"&  c #362B2D",
"*  c #431827",
"=  c #471929",
"-  c #521B2E",
";  c #581C30",
":  c #641E35",
">  c #48282C",
",  c #532222",
"<  c #47372F",
"1  c #562834",
"2  c #443737",
"3  c #453B3D",
"4  c #453837",
"5  c #59322B",
"6  c #682D26",
"7  c #79233E",
"8  c #722339",
"9  c #732F26",
"0  c #3F401D",
"q  c #2E4228",
"w  c #39482D",
"e  c #34542D",
"r  c #464B1D",
"t  c #45491D",
"y  c #4C521D",
"u  c #525B1E",
"i  c #59651F",
"p  c #57621F",
"a  c #4C4533",
"s  c #645727",
"d  c #5E6B20",
"f  c #566626",
"g  c #457C3A",
"h  c #676529",
"j  c #657621",
"k  c #697529",
"l  c #6A7435",
"z  c #727E39",
"x  c #656D34",
"c  c #4A3F41",
"v  c #633942",
"b  c #7D2340",
"n  c #4D4345",
"m  c #544645",
"M  c #5B5543",
"N  c #654C43",
"B  c #69574B",
"V  c #78574C",
"C  c #605657",
"Z  c #675E5E",
"A  c #6A5C57",
"S  c #4C6246",
"D  c #756C4A",
"F  c #70615A",
"G  c #72744F",
"H  c #7C6B64",
"J  c #766D69",
"K  c #7A736C",
"L  c #83263E",
"P  c #B23A3E",
"I  c #8F5635",
"U  c #BE403C",
"Y  c #9F6E3F",
"T  c #9A763F",
"R  c #AA6A3D",
"E  c #B5653C",
"W  c #C9443F",
"Q  c #CE4A36",
"!  c #DA4E38",
"~  c #D44C3B",
"^  c #C7593A",
"/  c #DB513A",
"(  c #D15339",
")  c #862543",
"_  c #97284B",
"`  c #98294A",
"'  c #A22B4D",
"]  c #B33647",
"[  c #B33647",
"{  c #90404D",
"}  c #93555B",
"|  c #894C4B",
" . c #B25250",
".. c #8B7643",
"X. c #937242",
"o. c #A15964",
"O. c #857A6C",
"+. c #847A78",
"@. c #82646A",
"#. c #B76477",
"$. c #CF4B40",
"%. c #DF6854",
"&. c #E36D52",
"*. c #E37A67",
"=. c #7C9524",
"-. c #7F9824",
";. c #75852F",
":. c #599647",
">. c #678648",
",. c #718745",
"<. c #52A74A",
"1. c #69AD57",
"2. c #72AE5B",
"3. c #819C25",
"4. c #82992B",
"5. c #85A126",
"6. c #8CAB26",
"7. c #8AA727",
"8. c #92B227",
"9. c #95B72A",
"0. c #9ABD28",
"q. c #97BA28",
"w. c #9EBE30",
"e. c #9EC329",
"r. c #A0C629",
"t. c #A5CD2A",
"y. c #A7D02A",
"u. c #ABD42A",
"i. c #AED82D",
"p. c #B0DA2E",
"a. c #ACD430",
"s. c #AFD830",
"d. c #B3DC32",
"f. c #B7E035",
"g. c #B8E236",
"h. c #868241",
"j. c #8A8577",
"k. c #948A7D",
"l. c #86B365",
"z. c #DE997F",
"x. c #EF9C7B",
"c. c #E7826A",
"v. c #F0A17F",
"b. c #BA6E82",
"n. c #8C8482",
"m. c #9F9693",
"M. c #938F89",
"N. c #A79F9B",
"B. c #BBBE81",
"V. c #AAA19C",
"C. c #B9A795",
"Z. c #B9A99A",
"A. c #BAABA3",
"S. c #BDB5AB",
"D. c #AEA7A1",
"F. c #D29280",
"G. c #E09885",
"H. c #C4B691",
"J. c #EEAE9F",
"K. c #F4AF8B",
"L. c #C9B5A1",
"P. c #C8B9AA",
"I. c #D5BEA8",
"U. c #C5BDB7",
"Y. c #EBB5A8",
"T. c #CAC189",
"R. c #D1C28C",
"E. c #DCC492",
"W. c #E4C696",
"Q. c #EAC799",
"!. c #F6C69E",
"~. c #DCC2A8",
"^. c #CEC5BD",
"/. c #D7C5B0",
"(. c #DCCCB9",
"). c #D5C7B6",
"_. c #F6C9A3",
"`. c #FBCBA3",
"'. c #F5C7A1",
"]. c #ECC6AD",
"[. c #D5CEC6",
"{. c #D6CFC8",
"}. c #DCD6CD",
"|. c #E4D6C5",
" X c #E5D9CB",
".X c #E9DCCC",
"XX c #EBD8C5",
"oX c #F5DCC3",
"OX c #E4DCD1",
"+X c #F4CEC1",
"@X c #EDE2D4",
"#X c #EBE3D8",
"$X c #F2E8DB",
"%X c #F5E6D9",
"&X c #F4ECE1",
"*X c #F9F1E6",
"=X c #FCF6EC",
"-X c #F7F0E5",
/* pixels */
"u.u.u.y.u.u.u.u.y.u.u.u.u.u.e.t.u.u.i.u.f.f.u.u.u.u.y.y.u.u.u.u.u.y.y.u.u.u.t.r.t.u.u.i.g.p.i.u.u.u.",
"p.p.u.u.y.u.y.t.e.u.i.i.i.u.y.u.u.p.p.p.p.p.i.u.u.u.y.t.u.u.u.u.u.u.u.y.u.u.u.y.y.u.u.u.f.d.i.i.u.u.",
"g.d.u.u.u.y.r.r.u.u.i.s.p.i.u.u.p.d.f.d.u.u.u.y.u.u.y.r.y.u.y.y.u.u.u.u.u.u.u.u.u.u.u.u.d.f.f.u.i.u.",
"u.u.u.u.y.u.t.r.u.u.u.u.p.f.i.p.d.f.p.p.u.u.y.y.y.u.y.r.y.y.r.y.u.u.u.u.u.u.u.u.u.u.y.u.i.d.i.y.p.d.",
"y.y.y.y.y.u.t.t.u.u.u.u.i.f.i.i.f.d.p.u.u.u.u.u.u.u.y.y.u.y.y.y.u.u.u.u.p.p.u.u.u.u.u.u.u.u.u.u.p.f.",
"u.u.y.u.u.t.u.u.y.t.t.u.i.p.i.i.d.i.u.u.i.u.u.u.u.u.y.y.u.u.u.u.u.y.y.u.f.p.u.u.u.u.u.u.y.y.u.u.u.u.",
"u.u.u.t.t.t.u.u.u.t.t.u.i.i.y.u.i.u.y.u.u.u.u.u.u.p.p.u.u.u.y.u.u.u.u.u.d.f.p.p.u.i.p.p.u.u.u.u.u.u.",
"u.u.u.t.t.y.u.u.u.t.t.u.u.u.u.u.u.u.u.u.u.y.u.u.i.f.p.u.u.u.y.u.u.p.u.p.p.d.f.u.u.p.p.p.u.u.u.u.u.y.",
"u.u.u.u.u.i.u.i.u.u.u.u.y.u.u.u.y.u.u.u.u.u.t.u.u.p.p.u.f.p.u.u.y.u.u.u.u.p.p.u.i.f.u.y.u.u.u.u.u.u.",
"i.u.u.u.u.u.p.p.u.u.u.u.u.y.u.u.y.y.y.u.y.t.t.u.i.p.u.y.u.i.u.u.y.y.y.y.u.u.i.u.i.p.u.u.u.u.u.u.i.p.",
"u.u.u.u.i.i.d.f.u.u.u.u.y.y.u.u.u.y.t.y.e.t.u.u.u.u.u.y.y.y.u.u.y.t.y.u.u.u.u.u.u.u.u.u.u.u.u.u.p.d.",
"f.f.f.i.s.f.f.s.i.u.u.y.t.e.u.u.u.u.u.y.t.r.u.u.u.u.u.u.u.u.u.u.u.u.u.u.u.u.u.u.u.y.t.e.y.u.u.u.p.p.",
"i.p.f.i.p.f.s.u.u.u.u.u.u.t.y.u.u.u.y.u.u.u.u.u.u.u.u.u.u.y.u.u.p.u.i.u.u.u.u.u.y.t.t.y.u.u.u.y.u.u.",
"u.i.p.i.i.p.u.t.y.u.u.u.u.u.u.u.u.u.y.u.u.u.u.u.i.u.i.u.y.u.u.p.p.p.u.i.u.u.p.u.u.y.u.u.u.u.u.y.t.t.",
"u.i.u.u.u.y.y.y.u.u.u.u.u.u.u.u.i.u.u.p.i.u.i.p.d.i.i.f.u.u.u.i.f.f.p.u.u.p.d.i.u.u.u.u.u.u.u.u.t.e.",
"u.i.i.u.u.u.t.t.u.u.u.u.u.u.u.u.u.i.p.i.i.u.u.p.f.p.d.d.u.u.y.u.p.f.p.p.p.p.p.u.u.u.p.i.u.u.u.u.y.t.",
"u.u.u.y.u.u.t.t.u.u.i.f.d.u.y.u.u.d.p.u.u.u.u.i.d.g.s.u.u.u.y.u.i.d.i.u.f.p.y.t.y.u.f.d.i.i.u.u.u.u.",
"p.p.u.u.u.u.e.e.y.u.i.i.d.d.u.i.f.f.p.u.u.u.u.u.i.f.i.y.u.y.t.y.i.i.u.u.i.i.u.e.y.u.i.i.s.d.p.i.u.u.",
"f.p.u.u.u.u.y.t.y.u.u.u.d.f.i.i.g.p.i.u.u.u.y.u.u.i.u.y.y.y.t.y.u.u.u.u.u.u.u.t.y.u.u.i.p.f.d.i.i.d.",
"u.u.u.t.e.y.u.u.u.y.y.u.i.d.i.i.d.u.u.y.u.u.u.u.u.u.u.u.u.y.e.y.u.u.u.u.u.u.y.u.u.y.u.u.i.p.p.u.d.g.",
"u.y.y.y.u.u.y.u.u.u.u.u.u.a.u.i.i.i.u.u.u.u.u.u.y.y.u.i.u.y.y.u.i.d.i.u.y.y.y.u.y.y.u.u.y.u.u.u.u.i.",
"u.u.u.u.p.u.u.y.u.u.u.y.y.y.u.u.u.u.u.u.u.y.u.y.y.y.u.i.u.y.u.u.s.d.i.u.y.t.y.u.u.y.y.y.y.u.u.y.u.i.",
"u.u.u.i.p.u.u.u.u.i.u.u.i.u.y.y.i.y.y.u.u.u.t.u.u.u.p.f.i.u.u.u.t.y.u.u.u.u.y.u.u.u.t.t.u.y.y.u.u.u.",
"u.u.u.u.p.p.p.p.p.-.d d -.y.u.y.u.u.u.y.y.u.u.y.y.u.p.p.s.i.u.i.s.u.=.d d d k e.u.y.y.y.u.u.y.u.u.y.",
"i.u.u.u.u.d.p.u.e.l c c x 6.9.e.u.u.e.6.6.6.8.8.6.8.8.8.q.9.9.a.a.8.x 3 3 c a 4.0.t.u.i.u.u.u.u.y.r.",
"u.u.u.y.u.u.u.7.0 k.{.{.O.@ @ k y.y.-.# @ @ @ @ @ @ @ @ @ @ # 3.6.# k.{.{.[.S.M j u.u.u.t.u.u.u.y.t.",
"u.u.u.u.u.u.u.-.X m.*X@XA.K n.G j j d e < > e < > w < 1 w < 9 h u X N.*X@X$X}.n i i.u.u.i.u.u.u.u.u.",
"u.u.u.u.u.u.y.=.X m.&X(. X*X=XN.+   q :.V | :.D | >.G { G 4.( 6 o   M.OX)..X}.n i u.t.i.d.i.u.u.u.i.",
"u.y.y.u.u.e.t.-.. m.*X$X X|.&X[.M.4 > | D G R T ,.R X.,.Y X.,.Y I g S J }.-X}.n p t.u.u.u.u.i.p.d.d.",
"i.u.i.u.t.e.-.;.J A.%X*X%X|..XP.O.v 8 ] Y T ( R X.^ E X.^ E z E  ...t c ).&X}.n p u.t.u.u.u.u.p.d.f.",
"u.s.f.s.y.e.r C &X|.(.*X=X&X/.O.. 8 ] ! / / / / / / ! / ! ! ! [ [ ~ 9 % C. X}.m i u.r.t.u.u.u.u.p.f.",
"d.s.u.u.y.y.y C &X&X&X=XOXI.H v 7 P Q ! c.v.G.x.x.K.x.x.K.K.G. .o.F.B a ).V.F ;.6.y.t.r.u.u.u.u.u.u.",
"s.i.y.y.y.y.y C &X&X$X=X.XC.4 - ' W ! ! x.!.T.T.R.!.`.`._.Q.B.} } P.j.+.#Xn.O 6.y.y.t.r.y.y.u.u.u.u.",
"u.i.u.u.y.t.y C &X X(.-X.XC.4 - ' W ! ! x.H.1.<.2.E.`.`.Q.B.<.e M P. X&X=Xn.+ 5.y.u.u.u.t.y.y.u.u.u.",
"u.u.u.u.u.a.5.;.K S.@X=X.XC.4 - ' W ! ! x.R.1.<.1.E.`.`.`.z.<.q m L.(..X-Xj.+ 5.y.u.u.u.u.u.y.t.y.u.",
"u.u.y.u.s.d.s.6.0 j.{.*X@XP.A 1 ) P ~ ! x.E.2.2.l.W.`.`.`.T.1.w m L.).(.^.j.r 6.t.u.u.y.u.u.u.e.r.u.",
"u.u.u.u.u.u.d.u.8.x Z OX*X#XP.@.$ L [ ! x.`.W.W.Q.`.`.`.`.!.E.N m L. X^.m k q.e.u.u.u.u.u.u.t.e.t.u.",
"u.u.u.u.u.u.i.i.y.3.l O.n.j.K a . 7 [ ! &.x.!.`.`.`.`.`.`.`._.N & F O.j.l 5.y.u.u.u.p.i.u.u.u.t.t.u.",
"u.u.y.u.i.u.u.u.u.u.8.t + O . . $ L [ ! / %.K.!.!.`.`.`.`.`.Q.V o   X y q.u.u.u.u.u.p.f.i.i.u.u.u.t.",
"u.u.y.u.u.u.u.u.y.t.0.6.7.4.@ = ) _ [ ! / / %.G.~.~.].`.~.~.~.o.: . i 8.t.y.y.u.u.u.i.i.f.i.u.u.u.u.",
"u.y.y.u.y.r.y.y.y.t.y.u.6.j 5 8 ' [ $.~ *.c./ G. X XoXoXXX X|.#.) ; s =.t.u.u.i.p.u.u.i.f.i.i.p.u.u.",
"t.u.u.y.t.r.t.y.i.u.u.u.j o 7 ` ` P Q Q Y.+X%.J.=X=X=X=X=X=X*Xb._ _ - # q.u.u.f.i.u.u.u.f.u.i.f.i.t.",
"u.i.s.u.u.y.t.y.u.u.i.f.k . $ = = , , , A.&X].%X=X=X=X=X=X=X*X@.= * o # e.s.u.d.i.t.u.u.u.u.u.i.u.u.",
"u.i.s.p.p.p.u.u.u.i.p.f.3.y y y y O % Z U.=X=X=X=X=X=X=X=XOXD.G y y y j t.i.u.i.i.u.u.u.u.u.u.u.u.u.",
"u.i.u.d.d.g.d.u.p.d.d.d.p.y.u.y.r.r Z &X=X=X=X=X=X=X=X=X=XN.. =.t.t.t.u.u.u.u.u.u.u.t.u.u.u.y.u.u.t.",
"u.u.u.p.d.d.d.d.i.d.d.p.i.u.u.3.f j.U.=X=X=X=X=X=X=X=X=X=XN.. =.u.u.u.u.t.u.u.u.u.y.u.u.u.u.u.u.t.r.",
"u.u.u.u.p.s.d.d.i.p.p.u.u.t.7.k m S.$X$X$X$X$X$X$X$X&X$X%XA.3 ;.8.u.i.u.y.u.u.y.t.y.u.u.y.u.u.y.r.r.",
"u.u.y.u.u.y.s.d.u.y.y.u.t.8.r A L.I./././././././././.)./.P.H.M u t.u.u.u.u.t.t.y.u.u.u.e.y.u.u.t.e.",
"u.u.u.u.u.u.u.p.u.u.u.u.u.8.# < A F F F F F F F F F F A F F F % r r.p.d.u.u.u.r.t.u.u.u.t.u.u.u.u.t.",
"i.u.u.u.u.u.u.u.u.u.u.u.y.q.#                                   r t.d.d.p.u.u.t.r.t.u.u.u.u.u.u.u.t."
};
