/* XPM */
static char *result[] = {
/* columns rows colors chars-per-pixel */
"50 50 202 2 ",
"   c #1C1117",
".  c #1E1318",
"X  c #22131A",
"o  c #231B19",
"O  c #2B141D",
"+  c #30181F",
"@  c #2F2B1A",
"#  c #312E1A",
"$  c #3B3B1B",
"%  c #2B1D22",
"&  c #311520",
"*  c #33282D",
"=  c #3F2829",
"-  c #3B362A",
";  c #3A2F31",
":  c #2A2025",
">  c #421826",
",  c #4E1B2C",
"<  c #531C2E",
"1  c #5C1D32",
"2  c #45272B",
"3  c #5E2625",
"4  c #433E2A",
"5  c #433636",
"6  c #453A3B",
"7  c #572E30",
"8  c #652A24",
"9  c #6C2136",
"0  c #79223F",
"q  c #76243E",
"w  c #3F411C",
"e  c #2D4628",
"r  c #33442B",
"t  c #42451D",
"y  c #464A1D",
"u  c #4F571E",
"i  c #57621F",
"p  c #58641F",
"a  c #4E5520",
"s  c #41472D",
"d  c #7D4B30",
"f  c #4E6A30",
"g  c #656729",
"h  c #677821",
"j  c #697A22",
"k  c #647523",
"l  c #676E39",
"z  c #6C7833",
"x  c #70793E",
"c  c #4A3F40",
"v  c #5E3B41",
"b  c #4C4245",
"n  c #574D4F",
"m  c #574944",
"M  c #664545",
"N  c #6A5148",
"B  c #605657",
"V  c #635B58",
"C  c #7F594B",
"Z  c #5A6447",
"A  c #746A4A",
"S  c #757848",
"D  c #756F53",
"F  c #736A6A",
"G  c #736B65",
"H  c #89293E",
"J  c #B23A3E",
"K  c #9E6F3F",
"L  c #98773F",
"P  c #A86D3E",
"I  c #AC6B3D",
"U  c #8F5434",
"Y  c #C8433F",
"T  c #D94E38",
"R  c #D44C39",
"E  c #C8583A",
"W  c #D35239",
"Q  c #DB543E",
"!  c #832442",
"~  c #9E294D",
"^  c #922848",
"/  c #95384D",
"(  c #A22B4D",
")  c #AE3347",
"_  c #B33647",
"`  c #B73A45",
"'  c #C03E42",
"]  c #8C474D",
"[  c #8F5654",
"{  c #B05940",
"}  c #B54B5C",
"|  c #AC5C40",
" . c #897544",
".. c #947640",
"X. c #8C6B44",
"o. c #9B5561",
"O. c #82736A",
"+. c #837B79",
"@. c #8B7B72",
"#. c #89656D",
"$. c #B66275",
"%. c #DD5C45",
"&. c #E4765C",
"*. c #E26D52",
"=. c #E37966",
"-. c #6E8123",
";. c #748823",
":. c #7C9425",
">. c #778634",
",. c #599448",
"<. c #7A8942",
"1. c #638649",
"2. c #4BA446",
"3. c #5DAB50",
"4. c #65AB54",
"5. c #73AF5C",
"6. c #7FB262",
"7. c #829D25",
"8. c #859F29",
"9. c #86A326",
"0. c #8CAB26",
"q. c #8EAB2A",
"w. c #88A327",
"e. c #93B527",
"r. c #99BC29",
"t. c #97BA28",
"y. c #8BA531",
"u. c #9EC429",
"i. c #A0C72A",
"p. c #A5CD2A",
"a. c #A7D02A",
"s. c #ABD42A",
"d. c #AED82D",
"f. c #B0DA2E",
"g. c #A7CB31",
"h. c #ADD530",
"j. c #AFD830",
"k. c #B3DC32",
"l. c #B7E035",
"z. c #B8E236",
"x. c #838441",
"c. c #8B8677",
"v. c #8E8371",
"b. c #EE9776",
"n. c #EF9C7A",
"m. c #D38A77",
"M. c #BF6F84",
"N. c #8D8583",
"B. c #948D83",
"V. c #9E9693",
"C. c #9B928D",
"Z. c #A09894",
"A. c #ADA49E",
"S. c #B9A795",
"D. c #BCAB9A",
"F. c #B9BD80",
"G. c #B3AAA1",
"H. c #BCB5AF",
"J. c #DE9582",
"K. c #E29E83",
"L. c #C2BF85",
"P. c #D1BF8C",
"I. c #F1AC8F",
"U. c #C9B5A1",
"Y. c #C2B4A6",
"T. c #C3BBB5",
"R. c #D0B4A3",
"E. c #F1BDAF",
"W. c #EFB5A6",
"Q. c #D4C28E",
"!. c #DBC492",
"~. c #CEC28B",
"^. c #E7C798",
"/. c #F4CA9F",
"(. c #FBC69F",
"). c #DFC3A7",
"_. c #D6C4AF",
"`. c #CEC3B7",
"'. c #DCCDBC",
"]. c #D5C7B8",
"[. c #FCCBA3",
"{. c #F7C7A0",
"}. c #E0CFBE",
"|. c #E8D4BF",
" X c #F0CBB1",
".X c #DDD7CE",
"XX c #DCD1C5",
"oX c #E2D3C2",
"OX c #E8DBCB",
"+X c #E6D8C8",
"@X c #E4DED6",
"#X c #EBDFD1",
"$X c #F7DACD",
"%X c #EEE3D5",
"&X c #E7E0D8",
"*X c #EEE8DF",
"=X c #F1E7DA",
"-X c #F5E9DD",
";X c #F4ECE1",
":X c #F8F1E6",
">X c #FCF6EC",
",X c #F7F0E4",
/* pixels */
"s.s.s.a.s.s.s.s.a.s.s.s.s.s.u.p.d.s.s.s.k.l.d.s.s.s.s.a.s.s.s.s.s.p.s.s.s.a.p.p.p.s.s.d.z.f.d.s.s.s.",
"f.f.s.s.a.s.a.p.p.s.s.d.d.s.p.s.s.f.f.f.f.f.d.s.s.s.a.p.a.s.s.s.s.s.a.s.s.s.s.a.a.s.s.s.z.f.f.d.s.s.",
"z.k.s.s.s.p.i.i.a.s.d.f.d.s.s.d.f.k.l.k.d.s.s.a.s.s.a.i.s.s.a.a.s.s.s.s.s.s.s.s.s.s.a.s.k.l.f.s.s.s.",
"s.s.s.s.a.s.p.i.s.s.s.s.k.l.d.f.k.l.f.f.s.s.a.a.a.s.a.u.a.a.u.a.s.s.s.s.s.s.s.s.s.s.a.s.d.l.f.a.f.l.",
"a.s.a.s.s.s.p.p.s.s.s.s.f.l.d.d.l.k.d.s.d.s.s.a.s.s.a.p.s.s.p.p.s.s.s.s.f.d.s.s.s.s.s.s.s.s.s.s.d.l.",
"s.a.a.s.a.a.s.s.a.p.p.s.d.k.s.d.k.d.d.s.s.s.s.s.s.s.a.s.s.s.s.s.s.s.a.s.l.f.s.d.s.s.s.d.p.a.s.s.s.s.",
"s.s.a.p.p.a.a.s.s.p.p.s.d.d.s.s.d.s.a.s.s.s.s.s.s.f.f.s.s.s.s.s.s.s.s.d.k.l.k.d.s.d.f.f.s.s.s.s.s.s.",
"s.s.s.p.p.a.s.s.s.p.p.s.s.s.a.s.s.s.s.s.s.a.s.s.f.f.f.s.s.s.p.s.s.d.s.d.f.k.f.d.s.d.f.f.s.s.s.s.s.s.",
"s.s.s.s.s.d.s.d.s.s.s.s.s.s.s.s.a.s.s.s.s.a.a.s.d.f.f.s.k.k.s.s.a.s.s.s.s.d.f.s.d.l.s.a.s.s.s.s.s.s.",
"d.s.s.s.s.s.f.f.s.s.s.s.a.a.s.s.s.p.s.s.a.a.a.s.d.f.s.a.d.s.s.s.a.p.a.s.s.d.d.s.s.f.s.s.s.s.s.s.s.l.",
"s.s.s.s.d.d.k.l.d.s.s.s.a.p.s.s.s.p.p.s.i.u.a.s.s.s.s.a.a.a.s.s.a.p.a.s.s.s.s.s.s.s.s.s.s.s.s.s.f.l.",
"l.l.l.d.j.l.l.j.s.s.s.a.p.i.s.s.s.s.s.a.u.a.s.s.s.s.s.s.s.s.a.s.s.s.s.s.a.s.s.s.s.a.i.p.a.s.s.s.s.s.",
"d.f.l.d.d.l.j.s.s.s.s.s.s.p.a.s.s.s.s.s.s.s.s.s.s.s.s.s.s.s.a.d.f.d.s.s.s.s.d.s.s.p.a.a.s.s.s.a.s.s.",
"s.f.f.d.d.f.s.p.a.s.s.s.s.s.s.s.s.s.a.s.s.s.s.s.d.s.s.d.a.a.s.k.k.d.d.s.s.s.d.s.a.a.s.s.s.s.s.a.p.a.",
"s.d.d.d.s.a.a.a.s.s.s.s.s.s.s.s.s.s.s.d.d.d.d.f.f.d.f.l.s.s.a.f.l.l.d.d.s.f.l.s.s.s.s.s.s.s.s.s.p.u.",
"s.s.s.s.s.s.p.p.s.s.s.s.s.s.s.s.s.f.d.d.s.s.d.f.l.f.f.f.d.a.a.d.f.l.d.d.f.f.f.s.s.s.f.d.s.s.s.s.s.p.",
"s.s.s.a.s.s.i.p.s.s.d.l.f.d.p.s.d.l.f.a.s.s.s.f.k.z.f.d.s.s.p.s.d.k.d.d.l.d.p.a.a.s.l.f.d.d.s.s.s.s.",
"f.d.s.s.s.s.p.i.a.s.d.d.k.k.s.d.l.k.f.s.s.s.s.s.d.l.d.a.s.p.p.s.d.f.s.s.d.d.s.i.p.s.f.f.k.f.f.d.d.s.",
"l.f.s.s.a.s.p.p.a.s.s.s.f.l.d.k.l.f.d.s.s.s.a.s.s.d.s.a.a.p.u.s.s.s.s.a.s.s.a.p.p.s.s.d.f.l.l.s.d.f.",
"s.d.s.p.i.p.s.s.s.a.a.s.j.k.d.j.k.d.a.a.s.s.s.s.s.s.s.s.d.a.u.s.s.s.s.d.s.s.a.s.s.s.s.s.s.f.f.s.f.z.",
"s.a.a.a.s.s.s.s.s.s.s.s.s.s.s.s.d.d.s.s.a.s.s.s.a.a.s.d.a.a.a.s.d.k.d.s.a.a.a.s.s.p.s.s.a.s.s.s.d.f.",
"s.a.s.s.s.d.a.s.s.s.s.s.a.a.s.s.d.s.s.s.s.a.s.a.a.a.s.d.s.a.s.s.s.k.d.s.a.a.p.s.s.a.a.a.p.s.s.a.s.s.",
"s.s.s.f.f.s.s.s.s.s.s.s.s.s.a.a.s.a.s.d.s.s.a.s.s.s.f.l.d.s.s.s.a.a.s.s.s.s.p.s.s.s.p.p.s.s.p.s.s.s.",
"s.s.s.s.f.f.d.d.f.d.s.s.a.s.a.s.s.s.a.a.a.s.a.a.a.s.d.f.f.d.s.d.d.s.s.s.s.s.s.s.s.a.p.s.s.s.a.s.s.a.",
"d.s.s.a.s.l.d.d.l.d.s.p.p.s.s.s.s.s.s.p.p.s.s.a.a.s.s.s.d.f.d.f.d.s.s.s.s.s.s.f.s.a.s.s.s.a.s.s.a.i.",
"s.d.s.a.s.s.d.d.s.s.s.s.s.s.a.a.p.p.p.p.s.s.s.s.a.s.a.a.s.d.s.d.s.p.a.s.a.s.s.k.k.s.s.s.a.s.s.s.s.p.",
"s.a.s.s.s.s.s.s.s.9.h j 0.f.s.s.p.s.a.s.s.j.s.s.a.a.a.a.a.a.s.s.a.u.:.-.h j ;.g.k.s.s.s.s.s.s.s.s.s.",
"s.s.s.s.s.s.a.p.u.g * * z p.u.i.p.s.s.r.g.i.u.u.u.u.u.t.e.e.u.a.u.e.f - * * s y.g.s.a.s.l.j.s.s.s.s.",
"s.s.a.s.a.p.p.9.y c.T.T.v.t t -.s.k.q.t w y t t t w t t w t t 7.:.w c.T.T.T.D.Z -.a.s.s.f.s.d.f.f.l.",
"s.s.d.d.a.u.p.:.o V.:X=XA.F F S ;.:.z e = 2 e - 2 r - 2 r w 8 g i o Z.>X%X;X.Xb p s.a.a.s.s.s.f.f.l.",
"s.f.k.d.p.p.p.:.o C.;X].OX>X>XV.X . e 2.C ] ,.A / ,.A / 1.x.T 3 . . V.=X].OX.Xb p s.i.p.s.a.s.s.f.l.",
"f.d.s.a.a.a.a.:.@ Z.:X=XOXXX,X].@.; = C A S P  .S K  .S K L >.U d f Z +.XX,X.Xb i a.p.i.a.a.s.s.d.d.",
"f.f.a.a.a.a.0.>.V D.-X>X%XoX%X`.@.v 9 ) X...E P x.E I x.E I >.I { <.r c ].,X.Xb p s.p.p.p.a.s.s.s.s.",
"d.s.s.s.s.i.u V @XoX'.,X>X-X'.@.O 9 ) R R W T W W T W W T W W ` ) W 8 6 D.#X.Xb p s.s.s.p.p.a.s.s.s.",
"s.s.s.s.s.h.u B *X-X%X>X=X].O.M 9 J R T =.b.b.b.b.b.n.b.n.n.n.} } m.M s `.A.G z 9.s.s.a.s.s.s.p.a.a.",
"s.s.s.s.s.h.u B *X:X;X>X+XS.5 < ~ %.T T n.{.!.Q.!./.[.[.[./.Q.o.o.R.+.#.&XN.# 7.p.s.a.s.s.s.a.u.p.a.",
"s.s.s.s.s.s.u B ;XOXoX:XOXS.5 < ( Y T T n.Q.5.4.y.).[.[.[.~.4.s m U.'.@X>XN.# 9.a.s.s.s.s.s.p.u.p.s.",
"s.s.s.s.s.s.7.z c.Y.%X:XOXS.5 < ( Y T T n.~.3.2.5.).[.[.[.F.2.e m U.}.&X,XN.# 9.s.d.f.d.s.s.a.a.a.a.",
"s.s.p.s.s.s.s.9.- B.@X:XOXY.m 7 ^ J R T n.Q.5.4.6.!.[.[.[.L.4.e v U._.'..Xc.w e.d.d.f.l.d.d.s.s.s.a.",
"s.s.s.s.s.p.s.p.9.l F @X,X#XD.#.> H ` T n./.!.!.!./.[.[.[.^.~.m b U.+X`.V l 0.p.s.s.d.f.l.f.s.s.s.s.",
"s.a.a.s.a.p.a.s.a.:.l B.V.C.v.m O 0 ) T &.K.[.[.[.[.[.[.[.[.{.N ; O.B.c.g 7.s.d.d.s.s.d.l.d.d.d.s.s.",
"p.s.s.a.p.u.i.a.s.s.0.$ o o . X O 0 _ T T *.I.[.[.[.[.[.[.[.{.N X   X t u.s.s.l.d.a.s.d.k.d.d.l.d.p.",
"s.d.k.s.a.a.a.a.s.s.p.q.9.;.# > 0 ^ ) T T Q *.K.).).[.[.).).).o.1 X i 0.h.s.s.f.d.a.a.d.s.s.s.d.s.s.",
"s.d.j.d.d.k.s.a.s.d.f.l.r.;.7 9 ( ) ' T &.=.Q J.}.oX|.|.|.oX'.$.H , g 9.h.j.s.f.s.s.a.s.s.s.s.s.s.s.",
"s.s.d.j.l.l.j.s.s.k.z.k.j & ! ~ ( Y T T W.$X%.I.>X>X>X>X>X>X>XM.~ ~ < $ t.s.s.s.s.s.a.a.s.s.a.s.a.p.",
"s.d.s.d.k.k.l.k.d.k.k.k.k X > , < 1 8 8 Y.;XE.-X>X>X>X>X>X>X>X#., , & $ e.s.s.s.s.a.a.s.s.s.s.s.p.p.",
"s.s.s.d.d.j.l.k.d.d.s.s.k % c n n n n n Y.:X>X>X>X>X>X>X>X>X>XN.6 . # i t.s.a.a.a.a.s.s.a.s.s.p.i.u.",
"s.s.a.s.s.a.j.k.s.a.a.p.k ; H.&X&X&X&X@X;X>X>X>X>X>X>X>X>X>X>X*XA.% h i.s.a.a.a.a.s.s.s.u.s.s.s.p.u.",
"s.s.s.s.s.s.s.d.d.s.t.h w @ V +.+.+.+.+.+.+.+.+.+.+.+.+.+.+.+.+.V % w -.u.s.a.p.p.s.s.s.p.s.d.s.a.p.",
"s.s.d.s.s.d.s.s.s.d.0.#           .                                   $ r.s.s.i.i.a.s.s.s.s.s.s.s.p."
};
