/* XPM */
static char *result[] = {
/* columns rows colors chars-per-pixel */
"50 50 183 2 ",
"   c #151D0D",
".  c #1B1B0E",
"X  c #1D150D",
"o  c #22130D",
"O  c #261611",
"+  c #261B11",
"@  c #2B1B13",
"#  c #301F17",
"$  c #0F260D",
"%  c #092C0D",
"&  c #14240E",
"*  c #1C210F",
"=  c #12290F",
"-  c #0C320E",
";  c #183B0F",
":  c #13370E",
">  c #1D2211",
",  c #142C11",
"<  c #1A2C12",
"1  c #0D3510",
"2  c #0E3B13",
"3  c #103611",
"4  c #1B3413",
"5  c #123C13",
"6  c #1E3D15",
"7  c #222A0F",
"8  c #252615",
"9  c #2A2012",
"0  c #232B15",
"q  c #282C15",
"w  c #2F2418",
"e  c #2D2D18",
"r  c #312416",
"t  c #332318",
"y  c #3A271B",
"u  c #362D1B",
"i  c #3D291C",
"p  c #342C11",
"a  c #293517",
"s  c #353117",
"d  c #353119",
"f  c #3B341C",
"g  c #3A3B1B",
"h  c #422D1F",
"j  c #442E20",
"k  c #4D3424",
"l  c #453C20",
"z  c #503625",
"x  c #523D26",
"c  c #0F4015",
"v  c #124517",
"b  c #1B4314",
"n  c #1A4916",
"m  c #124718",
"M  c #154B19",
"N  c #1B4B19",
"B  c #1B531C",
"V  c #1F591F",
"C  c #214517",
"Z  c #244B13",
"A  c #284719",
"S  c #204C1B",
"D  c #3F401D",
"F  c #354B1C",
"G  c #2E5414",
"H  c #22571D",
"J  c #235A1F",
"K  c #2F5C19",
"L  c #335714",
"P  c #335A16",
"I  c #30501C",
"U  c #345E19",
"Y  c #395E15",
"T  c #3E6316",
"R  c #3A661A",
"E  c #3B691C",
"W  c #35651E",
"Q  c #225D20",
"!  c #295F21",
"~  c #3C5820",
"^  c #256322",
"/  c #2B6523",
"(  c #2A6B26",
")  c #3B6D22",
"_  c #316B26",
"`  c #2E7228",
"'  c #3B7225",
"]  c #32752A",
"[  c #39772B",
"{  c #357B2C",
"}  c #3A7C2C",
"|  c #464217",
" . c #444A1F",
".. c #406516",
"X. c #456B17",
"o. c #436A1B",
"O. c #5A6619",
"+. c #4C741A",
"@. c #4A761D",
"#. c #50761A",
"$. c #547D1D",
"%. c #6C7C1D",
"&. c #434720",
"*. c #444B20",
"=. c #484C23",
"-. c #534627",
";. c #564F28",
":. c #4C5224",
">. c #425D23",
",. c #4D5924",
"<. c #465622",
"1. c #515427",
"2. c #515D26",
"3. c #565829",
"4. c #595A2A",
"5. c #466224",
"6. c #4D6326",
"7. c #536227",
"8. c #556429",
"9. c #566F2B",
"0. c #5B6E2C",
"q. c #5C672C",
"w. c #5E742D",
"e. c #60772E",
"r. c #61792E",
"t. c #647B31",
"y. c #3B812F",
"u. c #3D8530",
"i. c #3F8831",
"p. c #5D831C",
"a. c #62861C",
"s. c #638A1E",
"d. c #6C931F",
"f. c #71991F",
"g. c #40822F",
"h. c #598121",
"j. c #58932D",
"k. c #428731",
"l. c #438C33",
"z. c #488E34",
"x. c #469135",
"c. c #4A9536",
"v. c #4E9A38",
"b. c #589A33",
"n. c #519E3A",
"m. c #658C22",
"M. c #688E23",
"N. c #67802E",
"B. c #6E892E",
"V. c #6B862D",
"C. c #718C2E",
"Z. c #6E9523",
"A. c #739B20",
"S. c #74902D",
"D. c #78962D",
"F. c #7C9A2D",
"G. c #53A03B",
"H. c #7BA322",
"J. c #82AA23",
"K. c #84A52C",
"L. c #87A82C",
"P. c #89AB2C",
"I. c #8DAB24",
"U. c #8AB224",
"Y. c #91B727",
"T. c #95BE27",
"R. c #96BD2A",
"E. c #98BC2A",
"W. c #93B72B",
"Q. c #9BC427",
"!. c #9EC529",
"~. c #9FC828",
"^. c #9FC830",
"/. c #A0C729",
"(. c #A4CD2A",
"). c #A7D02A",
"_. c #ABD52A",
"`. c #AED82E",
"'. c #B1DB2F",
"]. c #A3CD30",
"[. c #B4DD32",
"{. c #B7E035",
"}. c #B9E236",
/* pixels */
"_._._.).)._._._.(._._._._._.(.(._._._._.'.[._._._._.).(._.f.% % % % M._._.).(./.(._._.'.{.'.`._.`._.",
"'.'.`.).)._.).(.).).`.`.U.a.p.p.p.s.H.`.[.[.`._._._.).Q.A.@./ ! ! / @.A./._.).).).`.).'.{.[.`._.`._.",
"}.[._._.).).(.(.(._._.(.w.: : : 3 1 o.~._._._./.Q.Q.Q.Y.Y ! n.n.G.G./ K U.Q.Q.Q.(.`.)._.'.{.{.`._._.",
"_._._.).).).(./._._.T.X.) y.y.g.k.k.' U J._.).s.L L s.R.j.z.G.G.n.n.x.@.P P P L s._.).).`.[.'.).`.{.",
"_.).).).).).).).).).J.b / G.G.G.n.n.k.J $.Z.d.T M M E m.b.n.n.n.G.G.G.k.5 5 n M T f.T.)._._._.).`.[.",
"_.).)._._.)._.).(.(.J.b / G.G.G.G.G.G.G.J % % H { { H 3 k.n.G.G.G.G.n.g.5 V { { J : H.).(.).)._._._.",
"_._.).).(.(.).U.X.T L : _ G.G.G.G.G.G.G.k./ - / c.c./ 3 k.G.G.G.G.G.] H J [ c.x.y.! R s.)._._._._._.",
"_.`._.).(.).U.p.n n N S ] c.n.G.G.G.G.G.G.z.H } n.n.' N k.G.G.G.n.n.] J } c.G.G.c.y.n T _._._._._.).",
"_._._._._.).X.n ` k.v.v.l.y.c.G.G.G.G.G.G.n.n.n.n.G.l.{ c.n.n.G.G.G.n.v.n.G.G.G.G.v.N .._.).)._._._.",
"_._./.d.+.+.b n l.v.G.G.v.c.n.G.G.G.G.G.G.n.n.G.G.G.v.c.n.n.G.G.G.G.G.G.G.G.G.G.c.i.n T _._._._.`.[.",
"`.Q.H.P b b - S v.G.G.G.G.G.G.G.G.G.G.G.G.G.G.G.G.G.G.G.G.G.G.G.G.G.G.G.G.G.G.v.y./ ; T )._.`._.'.[.",
"[.d.Z } z.z.H B v.G.G.G.G.G.G.G.G.G.G.G.G.G.G.G.G.G.G.G.G.G.G.G.G.G.G.G.G.G.v.i.^ : % T (._._._.`.`.",
"`.s.- g.G.G.[ [ b.G.G.G.G.G.G.G.G.G.G.G.G.G.G.G.G.G.G.G.G.G.G.G.G.G.G.G.G.G.b.x.} / / ) $.U._.)._._.",
"_.a.: g.n.n.G.G.G.G.G.G.G.G.G.G.G.G.G.G.G.G.G.G.G.G.G.G.G.G.G.G.G.G.G.G.G.G.G.G.G.G.G.y.5 s.Q.(.(.(.",
"_.s.: y.c.y.c.G.G.G.G.G.G.G.G.G.G.G.G.G.G.G.G.G.G.G.G.G.G.G.G.G.G.G.G.G.G.G.G.G.G.G.G.v.z.W +.!.).Q.",
"`.H.+.' [ l.v.G.G.G.G.G.G.G.G.G.G.G.G.G.G.G.G.G.G.G.G.G.G.G.G.G.G.G.G.G.G.G.G.G.G.G.G.G.G.] E a.U.(.",
"`._.Q.L Q G.G.G.G.G.G.G.G.G.G.G.G.G.G.G.G.G.G.G.G.G.G.G.G.G.G.G.G.G.G.G.G.G.G.G.G.G.G.G.G.G.y.5 a._.",
"{.'.Q.L Q G.G.G.G.G.G.G.G.G.G.G.G.G.G.G.G.G.G.G.G.G.G.G.G.G.G.G.G.G.G.G.G.G.G.i.c.n.G.G.G.G.g.3 a._.",
"'.Q.Z.K / G.G.n.c.v.G.G.G.G.G.G.G.G.G.G.G.G.G.G.G.G.G.G.G.G.G.G.G.G.G.G.G.G.n.i.i.c.v.G.G.G.g.- s.'.",
"_.s.1 / i.G.G.c.y.x.G.G.G.G.G.G.G.G.G.G.G.G.G.G.G.G.G.G.G.G.G.G.G.G.G.G.G.G.G.G.i.y.c.G.G.G.g.5 s.}.",
").p.1 [ c.G.G.c.y.y.i.n.G.G.G.G.G.G.G.G.G.G.G.G.G.G.G.G.G.G.G.c.i.G.G.G.G.G.G.G.i.Q ^ ] i.i.` - s.'.",
"H.@.n l.G.G.v.x.y.u.i.n.G.G.G.G.G.G.G.G.G.G.G.G.G.G.G.G.G.G.n.z.i.i.c.v.G.G.G.i.y.^ V ^ / / / P A.'.",
"; H ] c.n.G.i.u.n.n.n.G.G.G.G.G.G.G.G.G.G.G.G.G.G.G.G.G.G.G.n.n.i.B ( i.G.G.v.i.i.c.c.{ 1 1 P U.)._.",
"% N { l.y.` ^ ` n.G.G.G.G.G.G.G.G.G.G.G.G.G.G.G.G.G.G.G.G.G.G.G.i.y.^ ^ ` y.i.y.i.G.G.c.( b P Q.).).",
"% n ( ` Q v B ( v.G.G.G.n.v.n.G.G.G.G.G.G.G.G.G.G.G.G.G.G.G.G.G.G.G.y.V B ( y.y.x.G.G.n.v.H G J.T./.",
"% - 5 M M m ] c.G.G.G.G.x.u.v.G.G.G.G.G.G.G.G.G.G.G.G.G.G.G.G.G.G.G.i.i.{ ` i.i.v.G.G.c.y.V v n d.).",
"+.G % - 2 M y.G.G.G.G.G.i.y.v.G.G.G.G.G.c.c.G.G.G.G.G.G.G.G.G.c.c.G.G.G.i.i.y.i.x.l.x.i.{ ( B % a.).",
").p.% - 5 M g.G.G.G.G.v.i.i.v.G.G.G.G.G.l.u.v.v.G.G.G.G.G.n.n.z.i.G.G.G.G.i.y.` { ] ` ] { { / - a._.",
"_.p.% V ( ( x.G.G.G.v.u.x.v.v.G.G.G.G.G.v.c.u.c.G.G.G.G.G.G.G.v.i.i.v.G.G.i.{ y.( B B Q { { ^ 1 s.}.",
"d.+.B { i.i.x.x.x.x.x.y.l.G.G.v.x.v.G.G.G.c.y.l.G.G.G.G.G.G.G.G.i.y.i.i.c.i.u.i.` V M B ( / V - M.[.",
"% N y.c.G.G.i.{ { { { { l.G.G.c.{ c.G.G.n.c.{ z.G.G.G.G.G.G.G.n.i.y.{ { y.i.G.G.x.] B m v v 2 % m.[.",
"% v Q z.G.G.c.c.x.u.{ { y.i.v.v.c.l.i.i.l.u.{ x.G.G.G.G.G.G.n.x.y.y.{ y.y.i.G.G.v.x.] Q m v 2 % m.`.",
"Y Z v } v.n.G.G.G.x.u.{ y.i.v.G.n.i.u.{ { y.u.i.v.n.G.n.v.c.c.u.] ( { i.u.l.c.G.G.n.u.( 2 2 2 $ a.`.",
"(.p.- ( l.G.G.G.G.n.c.y.l.v.G.G.G.n.x.y.{ y.n.i.u.v.G.n.i.{ { { ( M { n.G.x.u.c.G.n.u.Q % % $ X %._.",
"_.a.& b / i.{ { n.n.v.y.x.G.G.G.G.G.x.{ u.c.G.v.i.i.i.G.c.{ V V ^ ^ i.n.G.c.x.n.c.i.{ ( 2 % $ @ | O.",
"I.O.X 3 B { Q / l.x.x.{ x.G.G.G.G.n.i.` i.G.G.G.G.i.c.G.G.i.V m B { i.c.x.c.G.v.l.{ ] ^ m 2 = w O o ",
"p 7 1 Q ] { ` ( B ( y.{ l.G.G.G.n.i.` M u.G.G.G.G.G.n.G.G.n.c.V m ] y.] V { v.i.y.] V m v 1 $ w @ o ",
"o . - / { { { / 2 Q { { { ] i.l.i.` V m ` c.v.G.G.i.n.G.n.v.i.M 1 B V Q ^ ] i.( Q ^ M c v 1 = w @ o ",
"o   - / { { ` Q - V ` ` Q B ` { ] B v v ( u.c.v.n.y.y.i.v.i.{ M % % 2 B ` { ` M m m m m v 1 , u r 9 ",
"o   - / { ] ^ v % c B B ^ ` ` { ] B v v / { y.u.u.y.( Q { y.{ B 2 % 2 M ` { ` v 1 m c v v 1 6 6.8.7.",
"O . < S Q ^ M 2 % 1 2 c Q { { { ` ( B v B ( ] { { { ^ m Q ^ ^ B 5 % 1 v Q / Q 2 % 2 2 2 2 C ~ w.r.e.",
"O @ y , 2 v v 2 % % 1 v Q ] ` { { { ( v m B ` { ] { Q m c m c c 2 % % % c v 2 % % 1 - - % >.t.t.r.w.",
",.,.8.6.I 1 1 , 8 , - 2 M B M Q { { ( m m v v M B B B c m m v 2 , 8 8 0 1 1 % . a 5.5.5.5.9.e.t.e.e.",
"F.C.t.t.6.C < > y e 4 2 2 2 % v ( ( V v c 1 = 1 c c 2 2 2 2 2 = > t y y q < q O u <.9.e.t.e.w.e.B.D.",
"_.P.t.t.t.t.f # k z f , % % % 1 v v v v 1 , t < % % % % % % %   + t j z z z k y @ + ,.w.t.w.w.r.K.).",
"_.~.P.B.t.t.f # z z k u e 8 8 , 1 1 1 1 a f j i a 8 > . F >.>.<.D @ t h z z z j t O ,.r.w.w.V.P.E./.",
"_._.(.K.B.t.&.f -.x k k i t # q 6 b 4 $ u k z k j t w s 8.r.t.t.7.d f l -.-.-.-.l s 8.N.C.S.K.(.(.Q.",
"_._.(.(.P.w.w.w.w.;.k i t # O g 9.9.<.o i k z h t O g 9.w.r.r.t.t.0.0.w.e.e.0.0.0.9.w.S.R.~.(._.).Q.",
"`._._._.!.P.P.F.r.q.3.:.:.:.*.2.r.w.8. .1.4.4.1.=. .,.r.r.r.r.t.t.r.t.r.r.r.r.w.B.L.L.W.(._.`._.).(.",
"_._._.`._._.`.R.N.r.r.w.e.r.r.r.r.e.w.r.r.r.r.w.w.w.w.r.r.r.r.t.t.r.t.t.r.r.w.w.F.(._._._._._.`.).(."
};
